/* XPM */
static char *_b8ee4b032984255fbd99c93c6da0dffY84CZIOuI8ZEJcW6[] = {
/* columns rows colors chars-per-pixel */
"64 64 247 2 ",
"   c #000000",
".  c #0B0401",
"X  c #0C0A01",
"o  c #170201",
"O  c #120C01",
"+  c #1A1703",
"@  c #1A1811",
"#  c #261403",
"$  c #2A1503",
"%  c #271708",
"&  c #2F140A",
"*  c #292601",
"=  c #392906",
"-  c #3A3A02",
";  c #363608",
":  c #362614",
">  c #363418",
",  c #322E22",
"<  c #4B0200",
"1  c #5A0800",
"2  c #481B0C",
"3  c #6D0B00",
"4  c #4F3310",
"5  c #5A321B",
"6  c #692B03",
"7  c #6D340A",
"8  c #783803",
"9  c #583B24",
"0  c #613A22",
"q  c #464304",
"w  c #4E4D08",
"e  c #584709",
"r  c #5B4A16",
"t  c #585619",
"y  c #664705",
"u  c #7C4200",
"i  c #69550A",
"p  c #744C15",
"a  c #665516",
"s  c #635B1C",
"d  c #756806",
"f  c #6E6714",
"g  c #594527",
"h  c #5F5C2E",
"j  c #664729",
"k  c #685626",
"l  c #6B6324",
"z  c #767541",
"x  c #812E00",
"c  c #912900",
"v  c #853801",
"b  c #943800",
"n  c #A63700",
"m  c #B33800",
"M  c #984806",
"N  c #965612",
"B  c #A84E05",
"V  c #AB5601",
"C  c #A55A03",
"Z  c #AC5C01",
"A  c #A95907",
"S  c #B25B01",
"D  c #B35A04",
"F  c #BA5D01",
"G  c #857701",
"H  c #967D1A",
"J  c #AE6200",
"K  c #AD6C00",
"L  c #B16200",
"P  c #BB6301",
"I  c #B66904",
"U  c #AE7200",
"Y  c #B27300",
"T  c #B87607",
"R  c #B17019",
"E  c #A15A22",
"W  c #8F6731",
"Q  c #A76B23",
"!  c #A96A22",
"~  c #B0732B",
"^  c #C35700",
"/  c #C56803",
"(  c #CA6D02",
")  c #D36B00",
"_  c #C57302",
"`  c #C97705",
"'  c #D97507",
"]  c #DD7D02",
"[  c #C87717",
"{  c #DA7D17",
"}  c #E07200",
"|  c #E37D04",
" . c #EC7B01",
".. c #E27D0A",
"X. c #EB7F09",
"o. c #F17B00",
"O. c #E17F13",
"+. c #C87B24",
"@. c #A36D40",
"#. c #9B8C00",
"$. c #999115",
"%. c #A38E01",
"&. c #A99905",
"*. c #B89B02",
"=. c #B69010",
"-. c #B9A605",
";. c #B4B000",
":. c #948A2D",
">. c #898537",
",. c #AEA02C",
"<. c #C98203",
"1. c #D58600",
"2. c #DD8200",
"3. c #D38A01",
"4. c #DB8905",
"5. c #DD9400",
"6. c #DA9C07",
"7. c #CE8F18",
"8. c #D98917",
"9. c #C89B17",
"0. c #E28100",
"q. c #E98201",
"w. c #E38A02",
"e. c #E98608",
"r. c #EB9502",
"t. c #E79807",
"y. c #F89B08",
"u. c #EE8714",
"i. c #EC9A16",
"p. c #FD9E13",
"a. c #F49C19",
"s. c #F79C18",
"d. c #C9AA05",
"f. c #DBA40A",
"g. c #CCB30D",
"h. c #D4B604",
"j. c #D9A216",
"k. c #DCA31C",
"l. c #E4A705",
"z. c #F5A403",
"x. c #FBA604",
"c. c #F5AD02",
"v. c #FDAB02",
"b. c #F4A50D",
"n. c #FEA50C",
"m. c #F5AC0B",
"M. c #FDAA0B",
"N. c #E9B509",
"B. c #F5B202",
"V. c #FCB301",
"C. c #F4BA03",
"Z. c #FBBB01",
"A. c #F5B70A",
"S. c #FBB50A",
"D. c #FDBC0E",
"F. c #EBA819",
"G. c #F4A416",
"H. c #FEA412",
"J. c #F3AD14",
"K. c #FEAA13",
"L. c #F2A41D",
"P. c #FEA61B",
"I. c #F2AA1E",
"U. c #FDAB1B",
"Y. c #EEB916",
"T. c #F8B317",
"R. c #F3B912",
"E. c #FEBC12",
"W. c #CE8227",
"Q. c #CE842C",
"!. c #D58223",
"~. c #FC9C2A",
"^. c #DEA321",
"/. c #CFAD36",
"(. c #EDA624",
"). c #EBAF25",
"_. c #EDA629",
"`. c #F8A226",
"'. c #FEA525",
"]. c #FFAA20",
"[. c #F8B827",
"{. c #E6AC35",
"}. c #F5BB39",
"|. c #D4C800",
" X c #EECE00",
".X c #F4C707",
"XX c #FCCB0D",
"oX c #FCDA03",
"OX c #FDD40D",
"+X c #FFDE0C",
"@X c #F3C614",
"#X c #FECD13",
"$X c #F8CA17",
"%X c #FEC51C",
"&X c #FECD1B",
"*X c #FED212",
"=X c #FEDE15",
"-X c #FFD31C",
";X c #FFDD1A",
":X c #FFE103",
">X c #F5E20B",
",X c #FCE10C",
"<X c #F6E214",
"1X c #FCE114",
"2X c #F6E418",
"3X c #FEE11A",
"4X c #FBF515",
"5X c #D8C63A",
"6X c #FFC621",
"7X c #FECD25",
"8X c #F9C62A",
"9X c #EDD02F",
"0X c #FFD522",
"qX c #FEDC22",
"wX c #FFD52A",
"eX c #F6DB29",
"rX c #FDDC2B",
"tX c #FFD534",
"yX c #FBDB38",
"uX c #FFE323",
"iX c #FFE22B",
"pX c #FDE135",
"aX c #8B8747",
"sX c #948E51",
"dX c #A49B4A",
"fX c #AEA657",
"gX c #BBB155",
"hX c #CAB747",
"jX c #C6BA58",
"kX c #CBC24C",
"lX c #D7C85A",
"zX c #F3CC4A",
"xX c #FBDA46",
"cX c #FDDD56",
"vX c #FAE14A",
"bX c #FBE256",
"nX c #DACA61",
"mX c #FED666",
"MX c #FFDD7B",
"NX c #FCE669",
"BX c #FCE779",
"VX c #E1D290",
"CX c #FFF08E",
"ZX c #FCE79B",
"AX c #FEEE9C",
"SX c #FFF094",
"DX c #FDEDA7",
/* pixels */
"                                                                                                                                ",
"                                                                      .                                                         ",
"                                              X ; a a g j k k j j j g 9 9 9 9 0 0 5 5 5 5 5 %                                   ",
"                                            O r ~ W.+.+.+.+.+.+.Q.Q.Q.Q.Q.Q.Q.+.+.R D F F v 9                                   ",
"                                          . f +...e.....| ..] ....| ..| ..............X.' 8 j                                   ",
"                                  O * * % p {  .o. .X.o. . . . . . . . . . . .o. .o.X.' D b @.9 9 4 4 : @                       ",
"                                + y T !.Q.8... . . . . . . . . . . . . . . . . . .X.' D D D D V M B M 8 0                       ",
"                              X p [ ..o.o. .q.q.q.q.q.q. .q.q.q.q.q.q.q.| q.q.q.q.) D V F .. . ... . .c p o                     ",
"                            + y ' X.| y.x.n.M.H.H.n.n.H.H.H.H.n.n.H.H.H.n.H.n.K.P._ V P {  . . .o. .) c E 9 : %                 ",
"                          O y [  . .| a.K.m.M.M.M.M.x.M.v.v.x.m.x.v.M.x.M.v.x.M.U._ F {  .| q.e.8.^ B B v N 8 5 .               ",
"                        X y +.| | q.2.a.).).I.(.I.J.c.B.B.c.c.B.c.c.B.B.c.c.c.m.R.` ] q.| q.0.] L Z D [ { { n 6 .               ",
"                      O = T p.y.H.p.a.zXMXMXMXMXMXcX7X#X*X0X&X-X-X-X&X-X-X&X-X&X7XK.y.p.p.p.P.| V F ' X.X.) V 8 : X .           ",
"                    X y R ].M.v.K.K.L.mXZX, , @ VXBXeX+X=XqXqX=X;X;X;X;X;X;X;X;X0XD.m.H.K.M.U.0.V ' X. .( S Z n M 8 4 o         ",
"                  O y [ 2.K.G.G.c.c.F.mXZXDXAXAXSXNXqX:X:X3X3X,X1X1X+X=X,X1X1X=X;XC.c.v.c.z.J.1.( ....( Z A / e.X.m x O         ",
"                  = 7.r.G./.hXhX$X-X0XyXvXbXvXvXvXyX;X+X=X=X=X1X=X=X=X=X1X=X=X=X=X*XOX#X#X#X7XR.y.P.8.V Z / O.e.' V x o         ",
"                  4 G.v.).dXsXfXuXqX=X1XoXoX+X+X,X+X;X;X;X;X;X;X;X=X;X;X;X;X;X=X=X3X;X1X3X3X3XXXv.K.8.V ( X.o.) F N 8 X         ",
"              X o e (.y.I.jXgXgXiXuX;X;X=X;X=X=X;X=X1X3X1X1X=X3X3X1X1X=X1X=X=X;X;X=X;X=X=X=X;X.Xz.K.4./ q.0.[ S S C x .         ",
"            = i G H ,.,././.5XzX3X1X=X=X;X;X;X;X;X;X0XR.Y.6X0XC.Y.$X;X=X;X=X;X=X1X;X=X=X;X3X;X*XXX%X].r.y.e.S S D A v %         ",
"            e 7.b.9.>.aXjX9XqXqX+X1X+X=X;X;X;X;X;X;Xl.2._ ` t.4.I f.uX=X=X;X;X=X1X;X;X=X=X;X;X;X1XqX6XM.K.i.Z D A C b 7 6 2 O   ",
"            i U.v.Y.dXdXkXiX,X,XqXqX;X;X=X=X+X<X1XOXz.'.( ` ].n.F j.uX>X1X;X;X=X=X;X;X=X=X1X=X1X<X;X$Xc.c.i.J D Z P ' / F M #   ",
"            i ).M.T.5XkXyXqX=X,XbXbXbXyX=X>X,X>X<XOXc.].` ` U.v.L 6.uX>X<X;X=X=X=X;X;X=X=X=X=X=X,X3X%Xc.V.i.Z Z F ] ....P A #   ",
"            a _.n.S.-X;X2X;X;X;XAXAXCXbXeX;X;XrXrX-XB.K.` ` U.v.L F.pX;X;X;X;X=X=X=X=X1X=X;X;X=X1XqX%Xv.K.t.V F O.X.] / S E #   ",
"          X f _.J.B.;X1X;X;X;X;XDXAXCXcXJ.y.r.i.t.z.v.K.( ` U.v.L 4.i.6.@X3X=X;X;X=X;X=X;X=X=X;X,XuX%Xc.M.t.F ..X...P Z S ! $   ",
"      * 4 a H /.{.8X0X;X1X;X=X1XNXNXNX}.4.q.q.r.q.r.M.K.w.y.K.v.w.u.u.L N.3X=X=X;X;X=X;X=X=X=X=X1X;X#XC.XXb.w.u.u.F Z D Z ! #   ",
"      r _.i.{.>.>.hXpX1X+X;X;X=XwXeXwXR.H.K.K.K.K.M.x.M.K.K.H.n.K.'.~.J Y.iX3XuX;X=X;X=X=X=X=X=X=X;X;X;X;X&Xm.U.a.S A J Z ! #   ",
"      f n.v.}.aXz jXrX:X=X;X;X=X+X+X=XZ.c.c.x.M.v.M.M.M.v.v.v.m.v.m.i.J 6.N.l.@XqX1X1X;X;X=X=X;X;X=X=X1X1XOXc.K.a.Z L S S Q $   ",
"      l n.v.}.h aXlXrX,X,X;X;X=X+X=X=X.XC.C.M.x.x.b.l.T.C.C.A.A.C.R.J.3.w.w.K j.iX+X1X;X;X=X+X;X=X=X;X=X3X*Xc.K.a.L Z F S ! $   ",
"    . s (.M.}.> sXnXtX=X=X;X;X,X;X;X;X;X;X0XE.n.K.1.Y tX0X-X;X;X=XwX7XV.M.'.L k.iX,X,X;X;X1X=X;X=X;X;X=X3X#Xc.H.a.L Z S S ! $   ",
"      s I.m.}.> sXnXeX=X=X;X;X=X;X;X;X;X=X;XE.H.U.1.Y tXqX=X=X;X=X0X0XB.v.P.S ^.rX,X1XqX;X+X=X;X1X;X;X=X3X#Xv.K.a.J C S S ! $   ",
"      k G.v.[.gXfXnX;X+X=X;X;X=X=X=X=X+X=X;XXXz.U.1.Y tX0X=X=X;X,X;X-XB.v.K.J k.iX,X,X;X;X=X=X;X=X;X;X=X3X*Xc.H.a.J J F V ! &   ",
"      s G.v.S.xXvXeX=X=X=X=X=X=X=X=X=X=X>X;XE.z.K.3.Y tXuX3X3XqX1XqX0XB.v.U.L k.iX,X=X;X;X=X=X=X=X;X;X=X1X*Xc.H.a.L Z S S ! #   ",
"      s (.v.Z.+X:X:X,X;X;X=X1X;X=X;X;X=X=X;XE.n.U.3.U 8X@X.X.X@X.X$XE.B.v.P.J ^.iX,X,X;X;X=X=X;X=X;X;X<X3X&Xc.K.a.J Z D Z Q %   ",
"      k L.v.Z.qX;X+X=X;X;X=X=X3X=X=X;X1X1X;XD.n.K.4.' q.| ] 2.| 2.] w.H.c.l.d.;X;X=X=X=X;X=X=X;X=X;X=X=X3X*Xv.H.a.L C S Z ! %   ",
"      l L.v.Z.qX;X=X=X;X=X=X=X;X=X;X;X1X1X;XD.x.M.n.n.p.p.H.p.H.p.P.~.P J.wXwXqX;X=X=X;X;X=X=X;X=X=X=X=X3X*Xc.K.a.J J D S ! %   ",
"      l L.v.Z.qX;X=X=X=X;X=X=X;X=X;X;X=X1X;XD.x.M.v.M.n.n.M.M.H.v.P.~.Z G.wX%X0X;X+X=X;X;X=X=X=X=X;X;X;X3X#Xx.K.a.L Z S Z ! %   ",
"      l L.v.Z.0X;X=X=X=X;X=X=X;X=X;X;X=X<X;XE.n.M.M.K.m.c.c.c.c.c.m.a._ 1.3.` f.uX+X=X;X=X=X=X=X=X=X;X=X;X#Xc.K.a.L Z S S Q %   ",
"      l L.v.Z.qX;X=X=X;X;X=X=X=X=X;X=X=X1X;XE.M.U.5.` wX-XOX*X&XOX&X6Xz.z.a.L k.iX+X+X;X=X=X=X=X=X;X;X=X1X*Xv.H.a.J Z S S ! %   ",
"      l L.v.Z.0X;X=X=X;X=X=X=X;X=X;X;X<X1X;XD.c.K.1.U tXqX=X1X;X1XqX0XB.v.U.L k.uX,X1X;X;X=X=X;X=X;X;X;X3X#Xc.K.a.J Z S S ! &   ",
"      l L.v.Z.qX;X=X=X=X;X=X=X;X=X;X;X=X1X;XE.x.U.1.U tX;X=X,X3X1X;X-XB.v.U.L k.iX,X=X;X;X=X=X=X=X=X;X=X1X#Xc.K.a.J Z S S ! %   ",
"      l L.v.Z.qX;X=X=X;X=X=X=X=X=X=X;X=X;X;XE.x.U.1.Y yXqX=X=XqX1X0X0XB.v.P.K k.iX,X=X;X;X=X=X;X=X=X=X=X3X*Xc.K.a.J Z D S ! #   ",
"      s L.v.Z.0X3X=X+X=X;X=X=X;X=X=X1X;XqXwXE.n.U.3.Y xXwX0X0XwX0XrX7Xv.v.P.L j.qX,X1X;X;X=X=X;X=X;X=X=X3X#Xv.H.a.L D I A M o   ",
"      t L.v.Z.qX;X=X=X;X;X=X=X;X;X=X1X-Xl.5.y.M.K.3._ w.5.5.5.w.5.5.t.M.c.m.T 8XqX1X=X;X=X=X=X=X=X;X;X;X3X#Xc.K.a.L A A E &     ",
"      w L.v.Z.qX;X=X=X;X=X=X=X=X;X=X;XN.r.r.z.c.M.y.r.r.r.r.r.r.r.t.i.1.R.@X@XrX;X=X=X;X;X=X=X;X=X;X=X=X3X#Xv.K.a.L C Q 2       ",
"      w F.v.Z.qX;X=X=X;X;X=X=X;X=X;X;XD.M.U.n.M.M.M.K.M.H.H.M.K.M.P.~.C N.uX>X=X=X;X=X=X;X=X;X=X=X;X;X1X;X*Xc.K.a.J Q 2         ",
"      q 6.v.B.qX3X1X=X;X;X=X=X;X=X;X;XC.x.M.x.x.m.x.M.x.M.M.n.x.v.P.a.Y $X3X=X=X;X=X;X=X=X;X;X=X=X;X;X=X3X-XS.].`.A W .         ",
"      * d $.g.*X$XXX=X;X;X=X=X=X;X;X;X@XD.D.D.E.D.S.x.K.r.t.K.v.5.G.T.@X3X1X;X;X;X;X=X;X;X1X=X=X=X;X-X.X*XY.<.<.[ u 7           ",
"        X + f l.m.B.*X=X=X;X;X=X;X=X=X;X;X;X;X;XuX-Xv.K._ _ U.v.J 6.pX=X=X;X;X;X;X=X=X=X=X=X=X=X,XqX&Xc.c.4.7 8 8 7 1           ",
"            4 d.H.T.;X=X=X;X;X=X;X=X=X=X=X<X<X;X2XOXc.U.` [ U.v.L j.uX>X=X;X=X1X=X;X;X=X=X=X=X=X,XqX%Xz.S.8.8 j 7 1 o           ",
"            q *.I.T.-X=X+X=X=X+X=X=X=X=X=X=X=X1X3X*Xv.U.( ` U.v.Z f.uX=X=X=X=X3X=X+X+X;XyXbXvXxX,X;X%Xm.U.7.M 6 < .             ",
"          X w N.v.V.;X1X3X;X;X;X;X;X=X;X;X;X;X;X;X*Xc.m.<.j.J.c.=.8X;X=X;X=X=X;X;X=X=XeXNXSXCXNX>X3X%Xv.v.w.6 <                 ",
"          O w l.v.V.;X2X2X;X;X;X;X=X;X;X;X=X;X=X3X*XXX$X&XqX$XXX&X;X=X;X;X=X=X;X;X=X,XrXBXDXDXBX,XuX&Xv.v.^ 1 .                 ",
"          X - G %.*. XOXOX;X=X=X=X=X=X=X1X=X=X=X1X3X1X;X3X=X;X3X1X=X1X;X;X=X=X;X;X+X,XqXbXBXBXcXoX-X[.6.D 1 .                   ",
"            X X X q d.v.B.0X;X+X+X=X+X=X=X=X=X=X=X1X=X=X1X1X=X=X=X=X=X=X=X=X=X=X;X=X+X=XqXrXrX$Xz.K.8.3 <                       ",
"                  O %.v.B.wXrX=XuXqX;X;X;X=X;X=X=X;X;X;X;X;X;X;X=X;X;X;X=X;X;X;X;X;XqX;X1X=X3X.Xx.} n 3                         ",
"                  X d &.d.|.rX-X0X0X0X;X;X=X=X;X;X=X;X;X;X=X=X;X;X;X;X=X=X;X;X;X=X-X0XqX0X-X0Xf.K u 6                           ",
"                    + - d &.B.V.B.B.B.#X3X=X;X=X=X=X=X=X=X1X=X=X<X=X=X=X=X=X=X=X=X.XB.V.V.B.N.#.X                               ",
"                        - #.B.v.v.v.v.XX1X1X=X=X=X=X3X1X1X=X1X=X=X=X;X=X1X=X=X=X3XC.v.z.v.v.C.G                                 ",
"                        + i #.&.#.#.&.|.qX;X=X;X;X;X;X;X;X;X;X;X;X;X;X;X;X;X;X;X4X|.d.-.*.%.G q                                 ",
"                          + # * ; ; t $. XV.V.S.A.A.S.S.A.S.S.A.A.S.S.S.S..XA.T.;.,.>.t - * X .                                 ",
"                              X     X f &. Xh.g.g.N.b.K.K.n.K.K.f.g.-.;.;.;.;.h.&.:.                                            ",
"                                      t $.9.9.=.9.^._._._.(.(._.(.(._._.k.g.&.&.$.t                                             ",
"                                      @ q >                                   > t                                               ",
"                                                                                                                                ",
"                                                                                                                                "
};
