/* XPM */
static char *_be7d6581fb14543a07feb41d7e66b31WMCzgnsXiS0BxzkN[] = {
/* columns rows colors chars-per-pixel */
"64 61 93 2 ",
"   c #000000",
".  c #00010A",
"X  c #0A0A0A",
"o  c #020212",
"O  c #010324",
"+  c #01042D",
"@  c #010432",
"#  c #01053B",
"$  c gray22",
"%  c #02064A",
"&  c #010752",
"*  c #01075A",
"=  c #010862",
"-  c #01096F",
";  c #020975",
":  c #020A7E",
">  c gray30",
",  c #565656",
"<  c gray39",
"1  c #69696B",
"2  c gray45",
"3  c #7D7D7D",
"4  c #020B85",
"5  c #020B8A",
"6  c #020C94",
"7  c #010C9B",
"8  c #020DA4",
"9  c #010EAE",
"0  c #010EB3",
"q  c #010EBB",
"w  c #024FAE",
"e  c #014AB3",
"r  c #0241B9",
"t  c #024BBC",
"y  c #0265B5",
"u  c #0269BB",
"i  c #027BB4",
"p  c #027EBA",
"a  c #4B748D",
"s  c #48788F",
"d  c #010FC3",
"f  c #010FC9",
"g  c #0210C6",
"h  c #0110CC",
"j  c #0110D3",
"k  c #0113DC",
"l  c #0112E3",
"z  c #0113EB",
"x  c #0013F5",
"c  c #0014FE",
"v  c #026DC0",
"b  c #017DD4",
"n  c #6F8795",
"m  c #619CB7",
"M  c #689DB5",
"N  c #7DAABF",
"B  c #0285C3",
"V  c #028ACB",
"C  c #028CD2",
"Z  c #028EDA",
"A  c #0291D5",
"S  c #0297DE",
"D  c #01A5F4",
"F  c #02A8F7",
"G  c #01ADFE",
"H  c #838383",
"J  c #8A8A8A",
"K  c #939393",
"L  c #9B9B9B",
"P  c #859BA6",
"I  c #A2A2A2",
"U  c gray65",
"Y  c gray66",
"T  c #ACACAC",
"R  c #B1B1B1",
"E  c #B6B6B6",
"W  c #9DB5C1",
"Q  c #A7BCC6",
"!  c #ADBDC5",
"~  c #B3C3CB",
"^  c #B3C4CC",
"/  c #BCC5C9",
"(  c #B6C7D0",
")  c #B6C9D1",
"_  c #C1CACE",
"`  c #C4CCD1",
"'  c #C5CED2",
"]  c #D2D2D2",
"[  c #D5D5D5",
"{  c gray94",
"}  c gray95",
"|  c gray97",
" . c white",
/* pixels */
"                                                                                                                                ",
"                                                                                                                                ",
"                                                                                < E T R I >                                     ",
"                                                                                U  . . . .J                                     ",
"                                                                                I  . . . .H                                     ",
"                                                                                U  . . . .J                                     ",
"                                                                                I  . . . .3                                     ",
"                                                                                1 E E E R ,                                     ",
"                                                                                Y  . . . .J                                     ",
"                                                                                I  . . . .H                                     ",
"                                                                                U  . . . .J                                     ",
"                                                                                I  . . . .H                                     ",
"                                                                                2 ] [ ] ] 1         X                           ",
"                                                                                          $  . . . .|                           ",
"                                                                                          $  . . . .}                           ",
"                                                                                          $  . . . .}                           ",
"                                                                                          $  . . . .}                           ",
"                                                                                          $  . . . .}                           ",
"                                                                                1 [ [ ] ] 2 X X X X X                           ",
"                                                                                J  . . . .H                                     ",
"                                                                                J  . . . .3                                     ",
"                                                                                K  . . . .3                                     ",
"                                                                                U  . . . .J                                     ",
"                                                O O O @ + O O O @ # + @ + O + O 1 K L K I ,                                     ",
"                                                j c c c c g c c c c x c c c c c O                                               ",
"                                                j c c c c q c c c c x c c c c c +                                               ",
"                                                h c c c c q c c c c x c c c c c +                                               ",
"                                                f c c c c 0 c c c c c c c c c c +                                               ",
"                                                g z z l l 8 z z z z l k l z x x +                                               ",
"                                    . c c c c c Z G G G G i G G G G D c c c c x q c c c c ;                                     ",
"                                    . c c c c c Z G G G G i G G G G D c c c c c q c c c c ;                                     ",
"                                    . c c c c c Z G G G G i G G G G D c c c c c d c c c c ;                                     ",
"                                      c c c c c C G G G G p G G G G G x c c c c 0 c c c c 5                                     ",
"                                      c c c c c C G G G G B G G G G G x c c c c 0 c c c c 5                                     ",
"                          # 0 8 8 5 4 y u v y y n W Q ~ ! s B V V C V h f d 0 d 5 f d f g 5 0 0 0 q 0                           ",
"                          * c c c c l G G G G G /  . . . .M G G G G G x c c c c 0 c c c c 0 c c c c c                           ",
"                          & c c c c l G G G G G _  . . . .m G G G G F x c c c c 9 c c c c q c c c c x                           ",
"                          & c c c c k G G G G G `  . . . .m G G G G F c c c c c 0 c c c c q c c c c c                           ",
"                          = c c c c k G G G G G `  . . . .N G G G G G x c c c c d c c c c d c c c c c                           ",
"                          % h j h k g S S V A C P ) ( ! ^ a B b b b b f f f k j 6 d h f h 6 j j j h g                           ",
"                          * c c c c k G G G G G B G G G G w c c c c c x c c c c q c c c c 0 c c c c x                           ",
"                          & c c c c l G G G G G V G G G G e c c c c c x c c c c 0 c c c c 0 c c c c c                           ",
"                          * c c c c l G G G G G A G G G G t c c c c c x c c c c 0 c c c c q c c c c c                           ",
"                          = c c c c x G G G G G A G G G G r c c c c x c c c c c d c c c c 9 c c c c x                           ",
"                          - c c c c k G G G G G S G F F D r x c c x z x x c c c d x x x c 0 x c c x l                           ",
"                          & x x x x k x x x x x h x x c x 0 c c x c x x x c c x 0 c c c c 0 c c c x x                           ",
"                          & c c c c l c c c c c j c c c c q c c c c c c c c c c 0 c c c c d c c c c x                           ",
"                          & c c c c l c c c c c j c c c c q c c c c x c c c c c 0 c c c c d c c c c c                           ",
"                          * c c c c l c c c c c h c c c c q c c c c c x c c c c 0 c c c c 0 c c c c x                           ",
"                          & c c c c l c c c c c h c c c c 0 c c c c x x c c c c 0 c c c c q c c c c x                           ",
"                          o + + + @ @ 0 q 0 q q 8 0 0 g q 5 9 9 g j q h g 9 q 0 4 g q d 0 = + @ @ @ +                           ",
"                                    . c c c c x l c c c c q c c c c x c c c c c g c c c c 5                                     ",
"                                    . c c c c c k c c c c d c c c c x c c c c c h c c c c 4                                     ",
"                                    . c c c c c l c c c c f c c c c x c c c c c h c c c c 5                                     ",
"                                      c c c c c l c c c c d c c c c x c c c c c g c c c c :                                     ",
"                                      0 0 7 8 8 8 q q d d 5 q q h j f d q q h q ; 4 6 5 6 %                                     ",
"                                                g c c c c 0 c c c c x x c c c c +                                               ",
"                                                j c c c c 0 c c c c x c c c c c +                                               ",
"                                                h c c c c 0 c c c c x c c c c c O                                               ",
"                                                k c c c c q c c c c x c c c c c O                                               ",
"                                                g c c c c 0 c c c c x x c c c c +                                               "
};
