/* XPM */
static char *cat2[] = {
/* columns rows colors chars-per-pixel */
"64 64 240 2 ",
"   c #2D231B",
".  c #1D293A",
"X  c #1C282F",
"o  c #2B272C",
"O  c #242C3A",
"+  c #272C36",
"@  c #29343C",
"#  c #373539",
"$  c #332D2D",
"%  c #291F16",
"&  c #433B39",
"*  c #41362F",
"=  c #4E433C",
"-  c #192945",
";  c #162B59",
":  c #1E325A",
">  c #0D275D",
",  c #293547",
"<  c #343C46",
"1  c #2A3A54",
"2  c #363F53",
"3  c #0A2A6D",
"4  c #0D2865",
"5  c #122C64",
"6  c #1C3467",
"7  c #0B2C73",
"8  c #062B78",
"9  c #163676",
"0  c #0E347D",
"q  c #263A67",
"w  c #213D73",
"e  c #2C4547",
"r  c #37424C",
"t  c #364558",
"y  c #374A58",
"u  c #3B4963",
"i  c #364867",
"p  c #3C537B",
"a  c #304671",
"s  c #484648",
"d  c #554A4A",
"f  c #5C534A",
"g  c #454D5A",
"h  c #48515D",
"j  c #5A5655",
"k  c #524F55",
"l  c #664C4A",
"z  c #655A4D",
"x  c #635B55",
"c  c #635D5A",
"v  c #695956",
"b  c #755B57",
"n  c #704F48",
"m  c #6C645C",
"M  c #6A6459",
"N  c #766A54",
"B  c #756C5C",
"V  c #796E5B",
"C  c #756559",
"Z  c #7A715E",
"A  c #77705E",
"S  c #75654F",
"D  c #424E65",
"F  c #465568",
"G  c #555D67",
"H  c #475775",
"J  c #555D76",
"K  c #55626C",
"L  c #596677",
"P  c #556B77",
"I  c #6B6562",
"U  c #6D6A65",
"Y  c #686765",
"T  c #736761",
"R  c #736C64",
"E  c #796D64",
"W  c #726E6A",
"Q  c #7B6C67",
"!  c #767165",
"~  c #7B7364",
"^  c #75726C",
"/  c #7B746B",
"(  c #7D7A6D",
")  c #7F7866",
"_  c #6C747B",
"`  c #7B7572",
"'  c #7D7B74",
"]  c #7D7D7A",
"[  c #757473",
"{  c #676A78",
"}  c #645D60",
"|  c #835A48",
" . c #836C65",
".. c #837564",
"X. c #83756C",
"o. c #827A6D",
"O. c #897B6B",
"+. c #877867",
"@. c #847C73",
"#. c #8B7E74",
"$. c #837D7A",
"%. c #867B76",
"&. c #937B72",
"*. c #927667",
"=. c #8A6758",
"-. c #7F8179",
";. c #86806E",
":. c #89816F",
">. c #858275",
",. c #8B8374",
"<. c #84847C",
"1. c #8B857B",
"2. c #87887C",
"3. c #8C897C",
"4. c #92847C",
"5. c #928B7D",
"6. c #918376",
"7. c #042D85",
"8. c #06338D",
"9. c #093487",
"0. c #3D5A87",
"q. c #435B87",
"w. c #5C6C87",
"e. c #536E91",
"r. c #687589",
"t. c #767C8A",
"y. c #6A7A98",
"u. c #747D94",
"i. c #656D80",
"p. c #547AA3",
"a. c #707FA4",
"s. c #8A7E81",
"d. c #7C8589",
"f. c #75849B",
"g. c #798696",
"h. c #6E819F",
"j. c #7989A6",
"k. c #7D92AA",
"l. c #7087A6",
"z. c #5B84B0",
"x. c #868582",
"c. c #8B8582",
"v. c #8C8B83",
"b. c #8A8B87",
"n. c #938B83",
"m. c #948C8B",
"M. c #968A87",
"N. c #8E918B",
"B. c #949085",
"V. c #94928C",
"C. c #9A948D",
"Z. c #9B958A",
"A. c #858B96",
"S. c #958E92",
"D. c #87929B",
"F. c #959493",
"G. c #9A9592",
"H. c #9D9A94",
"J. c #9B9A9B",
"K. c #99979B",
"L. c #A3958C",
"P. c #A29B95",
"I. c #A49D9A",
"U. c #A89796",
"Y. c #A58E8A",
"T. c #9FA19C",
"R. c #A5A29C",
"E. c #AAA49C",
"W. c #A8A398",
"Q. c #848EA4",
"!. c #8C96AA",
"~. c #8695A9",
"^. c #979CA8",
"/. c #879BB4",
"(. c #959EB1",
"). c #A59DA2",
"_. c #B29DA0",
"`. c #97A2AB",
"'. c #8BA3B7",
"]. c #94A4B3",
"[. c #9CAABB",
"{. c #98A4B9",
"}. c #8EA3AD",
"|. c #A4A3A3",
" X c #ACA5A2",
".X c #ADABA4",
"XX c #ACABAC",
"oX c #A6A6AB",
"OX c #B3ABA8",
"+X c #AFB1AC",
"@X c #B3B3AC",
"#X c #B9B5AC",
"$X c #A7ACB6",
"%X c #B7AFB3",
"&X c #AEB3B8",
"*X c #B4B4B3",
"=X c #B4BABB",
"-X c #BCBCBB",
";X c #B9B7B7",
":X c #C1BBBD",
">X c #BEC1BB",
",X c #C1C3BE",
"<X c #9CABC5",
"1X c #97A9C4",
"2X c #8FA9CC",
"3X c #A1AFC3",
"4X c #A4B4CB",
"5X c #A6B5C9",
"6X c #BCBDC2",
"7X c #B5BAC2",
"8X c #ABBCD3",
"9X c #B1BED3",
"0X c #859FC4",
"qX c #C2BEC2",
"wX c #BDC2C3",
"eX c #BDC3CA",
"rX c #B5C3D7",
"tX c #AFC1D8",
"yX c #B6C9E1",
"uX c #C2C3C5",
"iX c #C3C5CB",
"pX c #CBCCCD",
"aX c #C7C9C9",
"sX c #CDD0CD",
"dX c #C5CBD1",
"fX c #CBCCD2",
"gX c #CBCFD8",
"hX c #D1CFD6",
"jX c #CDD1D4",
"kX c #CDD2D9",
"lX c #D3D3D5",
"zX c #D3D4DB",
"xX c #D8D9DC",
"cX c #D0D2CE",
"vX c #DCDCE3",
"bX c #D7D9E2",
"nX c #E1DEEA",
"mX c #DEE3E9",
"MX c #E2E5ED",
"NX c #E9EBF3",
/* pixels */
"M ( M ^ ( / @.o.o.f   % & l z z M N ~ I.aXc.` @.@.1.1.n.M.B.Z.F.H.T.oXoX$X&XkXNXeXoXoXoX).K.F.G.F.m.n.v.1.c.x.J.fXqX` [ ^ U U Y ",
"U ` M ' ^ / @.@.@./ * %   z z z M M E C.;X-X@.o.@.@.1.v.v.n.m.F.F.K.).|.oXoXXX&XoX^.^.oXK.F.V.V.m.b.c.v.c.M.*XzXlXI.' ^ ^ Y Y Y ",
"( ^ x ( ! / @.@.@.X.z   $ z f z S M m c. XpX X( / ' @.1.2.1.v.N.F.F.K.J.).).^.).K.K.J.F.m.N.v.v.v.v.1.x.S.aXvXxXuXc.[ ^ U U M Y ",
"' ^ M ( m o.( @.@.X./ & $ S f z z M m n.I.;XxXU.@.>.1.b.b.v.F.`.oX`.H.J.^.|.^.^.^.F.).H.m.n.3.3.2.>.b.XXlXnXvXcXI.@.^ R A U M x ",
"' ^ m -.M ;.R o.%.O.X.x = M f z z S C >.U._.qXxXI.F.F.F.J. X>XbXxXeX&XeXuX7X=X7X3X$XI.J.K.P.Y.s.3.H.hXnXvXnXcXOXM.@./ / ! U M M ",
"$.! ! ^ B o.! ( @.@.@.~ S B z z M M B 3.P.U.:XlXxXXX%XqXiXxXMXMXNXNXmXMXMXMXmXbXzX6X&X).)._.).s.@XvXnXnXxXhX:XP.v.@.@.( ( ! A B ",
"<.U ( ! ^ -.! ' ! @.@.o.^ B S M C N E 1.m._.%XaXnXxXfXzXnXMXMXxXmXNXmXmXmXNXmXmXbXbXiX6X6X6X3XhXMXnXlXhXqX:XY.L.1.1.@.( ) ! ^ U ",
"<.U ' U ^ ( ! ;./ @.@.o.^ B S M B N E $.s.I.U.:XpXhXfXbXvXxXxXlXxXxXkXbXbXbXmXbXfXiXhXzXzXzXnXnXlXpX%X:X_._.L.5.1.1.@.@.@.( ! ! ",
"2.I -.U ( ( ( / ' / @.#./ E C C V ....@.c.P.U.-XpXdXjXzXcXcXcXsXxXcXjXkXxXxXbXkXdXeXdXjXbXgXhXhX:X_._._.P.L.L.B.n.1.1.#.%.@.( / ",
"2.U >.U >.( ) / ( ! / #.o.E B B E X.%.@.5.OX_.:XqXfXjXlXcXsXcXsXcXcXsXsXjXjXkXgXjXdXdXkXzXzXhXqX:X_._.Y.L.L.Z.Z.M.n.5.6.@.@.o./ ",
"2.W <.R <.( o.' @.R M @.X.! B ! E X.#.#.M.W._.:XaXhXjXlXjXsXcXsXcXcXaXwXeXjXkXzXzXzXjXgXqXqXqX%X_.Y._.5.L.L.Z.Z.B.B.M.5.1.#.@.( ",
"-.[ <.^ v.' ,./ >.R v ! ( ! A ! X.%.#.1.B.Z.).aXbXhXlXlXlXsXsX,XcXsX>X>XeXkXbXbXbXzXzXfXqX7XU.U.Y._.6.5.W.P.H.Z.Z.B.B.M.1.1.@.%.",
"-.-.-.[ v.' 2./ >.R B C o.E ~ ~ o.O.#.2.n.H.%XvXxXhXhXhXcXaX,XsXsX,X>X>XsXkXkXxXkXzXzXkXiX%XU.U.&.&.&.Y.W.W.W.Z.Z.Z.B.B.n.1.2.#.",
"' -.-.-.N.<.c.( #.T R / X.~ ~ X.o.@.,.3.Z.:XvXnXzXhXhXlXsX#X>X,X,X>X>X>XsXjXgXsXpXhXkXzXgXqXoXY.&.&.*._.W.W.W.W.P.H.Z.Z.B.v.1.,.",
"W <.' ] V.' x.' <.m / ,.o.~ ~ +.@.#.1.M.H.uXzXzXaXqX;X:X*X.X;X>X>X>X@X+X+XwXwX>X6XdXiXfXgXhX;XS.=.=.*._.E.W.R.W.W.Z.Z.Z.B.n.1.1.",
"+ @ < # g s k j j k c ^ ! R B / %.s.c.S.+XlXhXiX-X+X X|.W.@X>X-X>X.X.XZ.H.|.`..X*X6XuX6X6XqXqXS.=.=.=._..XE.W.R.W.W.H.Z.B.n.n.1.",
"2 r 1 < < < , @ @ @ < # < # r s k k j t.6XjX-XXX).K.I.c.b..X;X-X@XR.V.>.$.c.F.T.+X-X=X=X*X*XuXXX*.| | _.OX.X.X.XW.W.H.Z.Z.B.5.5.",
"1 t 2 t t t t D u i g D y , e g h h g t.iX6X).F.m.S.S.c.x. XOX*X XV.$.` ' $.b.K.*XqX;X*X X|.*XuX4.n | L.#X.XOXW.W.W.W.Z.Z.Z.B.5.",
"y u u t t 1 t t i i i a u e i F F K P Q.pX`.b.$.s.s.s.s.b.P. X+X|.b.@.` @.$.` c.J.*X*XXXK.H. X-XM.n | L.#X#X@X.XE.E.W.T.H.Z.Z.B.",
"F D F i t i t p p 0.0.0.0.0.0.p t y F `.6XS.` I } j c [ n.m.K.OX.XF.c.<.1.U x x ^ J.oXT.K.F.`.*X).=.=.5.#X#X@X.X.XE.W.R.P.H.B.V.",
"u D H H H F H p p 0.q.p.e.z.z.e.1 < r $X=X` Y d $ $ j & c.m.n.I..XI.F.V.v.s # * $ j <.b.F.F.T.XX;XM.C B.:X#X@X+X.X.XW.R.P.H.Z.V.",
"i D H J y.y.y.y.y.h.z.h.z.p.z.P e < G dX=X[ Y & o o & & Q c.s.G. X.XR.P.$.& $ # $ # j ] N.G.J.T.=X;XZ.W.#X#X@X@X+X.XE.R.P.H.G.V.",
"w.w.w.e.y.l.j.f.k.~.'.'.}.k.r.h # < r.lX*XW [ # o + k d c m.s.G.I.I.I.I.R & # _ $ # j #.v.H.H.T.&XdXaXW.#X#X#X@X+X.XE.E.I.P.H.C.",
"w.w.y.y.y.y.l.l.l.k.'.'.k.k.g.y # r t.dXXX[ <.s o < k s c c.M.G.I.P.P.P.R k # s $ & $.c.2.N.N.C. XiXwXH.E.#X#X#X+X.X XE.R.P.H.C.",
"L w.y.y.a.j.j.j.k.k.k.'.2Xk.k.y @ # t.uX).W s.d o $ # s.v s.M.S.U.U.P.L.c } k # # x s.` c.m.V.V.T.>X>XT.H.#X#X@X+X.X.XW.W.W.H.Z.",
", H y.y.y.f.j.f.f.f.k.'.k.k.k.e @ < _ -XK.I t.c # o < d m M.S.M.G.S.P.Z.v j } c.s / s.U ' <.v.V.N..X&XT.N.>X>X@X+X.X.XW.W.W.H.G.",
"+ F t.u.u.u.g.u y y F P P d.r.@ @ @ d.*XS.Y Y ` d & d v ` S.m.m.G.S.U.P.I v Y j } $.` I ' -.v.v.v.T..XT.V.*X>X@X+X.X.X.XR.W.H.Z.",
"+ J t.u.u.g.g.t e e e e e e K @ + , _ XXS.Y j ` @.I @.s.M.S.M.n.M.M.U.U.1.c.n.%.^ Q j j [ ' >.2.5.v.V.T.H.E.>X#X@X.X.X.XR.R.H.G.",
"X _ t.u.u.u.t.r e e e e e e P + + < t. X2.^ M W c.U.I.U.m.G.s.4.n.M.C.I.I.E.E.U.@.c c W ~ -.3.3.2.3.N.V.V.3.@X>X@X@X.XE.R.R.P.Z.",
"@ g.Q.Q.!.Q.Q.u.d._ P K h F P + + , t.K.-.` ' $.c.I.).I.U.S.$.#.4.M.M.I.U.OX Xm.$.T } T A -.2.3.2.2.2.B.3.-.@X>X@X@X.X X XR.H.H.",
"e A.Q.~.!.!.(.(.}.}.}.}.}.}.K + + , t.K.] ' c.m.P. X).P.U.M.%.%.#.M.M.I.U.OXOX Xm.[ W U [ 2.2.2.2.2.2.2.2.-.W.>X,X>X,X;X+X XR.H.",
"g D.~.!.!.^.!.(.}.].{.[.$X[.g + + + G F.x.` ] c.K.).I.P.C.#.T  .X.#.4.U.). X XE.H.s.` @.2.2.2.2.2.2.2.v.2.-.V.aXxXbXlXfXuX.XW.H.",
"D s.A.Q.!.!.`.}.].{.[.[.$X].r O + , F D.$.x.$.$.m.G.P.G.M.O.b Q  . .X.Y.I.).I.I.m.$./ $.1.c.1.2.1.2.2.2.;.-.;.@XxXkXeXsXaX+XE.T.",
"h J { { _ d.g.k.^.`.}.].[.}., O + + e b.$.$.] $.s.c.c.c.M.T l Q  .Q b M.Y.m.G.G.F.s.$.n.1.n.2.1.1.>.2.<.-.-.-.3.eXjXwXwX>X.XR.H.",
"i.s.g.u.t.{ K j Y Y -.d.D.k., . O O r b.^ ` ` $.] $.$.] #.Q f b  . .b %.#.$.s.n.x.1.1.1.3.3.1.1.2.>.>.<.;.-.) 2.>XjXsXwX;X+XW.I.",
"r.u.g.A.d.K c f j j z j K -.. . O . O ] [ ` [ W ` ` ` ] X.C l n b b b %.%.%.%.c.c.$.n.3.1.1.2.2.2.2.2.>.;.-.B -.>XwXjXsX-XXX XR.",
"w.i.r.g.g.-.{ -.Y M M U Y _ . . . . r d.] $.` W U W ` ` Q T b l n b b Q  ./ ` $.` $.n.5.,.2.3.2.2.2.>.<.>.~ A [ T.dXsXjXpX@X|.R.",
"u.a.g.j.g.k.g.g.A.g.d.d.d.L . . . 2 y A.x.$.' W c W [ Q Q Q b l l b C Q Q ` %.[ ^ <.n.v.2.3.3.3.1.2.1.2.>.! ! ( v.wXeXeXjXfXXX|.",
"f.g.j.Q.~.}.}.'.k.'.}.}.}.L . - 1 , 1 b.x.$.$.[ M I W W Q Q v n l b T Q Q ` [ [ ' <.2.3.5.3.3.3.5.2.,.1.-./ ! ( -.+X=X=XdXzXiXXX",
"r.u.j.Q.k.k.}.k.'.'.0Xk.1XF - - - - , _ S.c.<.` Y x I U T v v l l v v m T Q ^ ^ ' >.,.;.2.5.B.2.3.>.>.2.( / ! ( -.T.>XeXeXfXzXfX",
"y.r.u.f.Q.Q.~././.1X1X1X1Xu - - - - , s.^.$.c.%.R c c U I c v d l d v m T T ^ $.s.>.( 1.5.5.5.B.1.>.,.2.( ^ ) ! -.H.&XwXrXeXxXkX",
"y.r.y.y.j.!./.'.1X1X<X<X2X1 - - - . H i.^.c.$.] [ W j I I v v l l l v } I U ` ` s.1.,.>.5.Z.B.B.n.1.1.,.) ( ^ ( -.V.>X>X>XrXeXkX",
"y.r.y.y.a.j./.1X1X1X<X4X/.1 - - - p - L K.F.$.$.` W c c v x v v b v v b c Q X.<.<.;.5.5.5.5.Z.5.3.3.3.#.( / ( ( -.N.>X$X>XeXsXkX",
"y.u.j.j.a.l././.1X1X4X4X/.- - - i 1 1 L ^.m.1.@.$.[ R c x c m T T Q T m T ` $.c.<.,.3.5.5.5.5.5.5.5.3.@./ / ! ( -.2.|.+XeXeXsXyX",
"u.y.j.j./.j./.0X1X<X4X4XQ.- - q q - H w.A.S.n.#.$.` W R m I U Q Q X./ Q / %.$.$.3.>.3.5.5.5.5.5.B.5.6.;.! ! ~ ( 2.x.|.wXkXeXjXeX",
"Q.Q.~.!./.!.{.(.<X<X4X4Xy.- q 1 : q H , { S.M.4.$.` [ R m T R Q Q X.Q ^ X.` @.#.@.5.3.,.,.5.,.,.5.6.,.( ! ! ( -.2.v.H.=XkXsXwX&X",
"~.~.!./.(.{.1X{.[.5X4X4Xw.: 1 q q H : ; i d.M.M.1.$.%.! E Q Q Q [ Q ` Q ` / %.@.,.,.5.5.,.,.5.,.6.3.;./ ! ! ( -.<.2.N.+XsXdX=X}.",
"Q.!.!.(.].{.{.1X<X3X4X8XH 6 q q q q ; ; : J M.n.1.@.%.%./ ^ ! Q  .` %.%.%.%.%.+.,.,.3.6.5.,.5.3.,.,.) ! ! ! ( -.<.2.v.T.;XeX&XoX",
"f.!.(.(.(.1X[.[.3X4X5X4XH ; 6 q q 6 ; 5 ; u S.M.n.#.#.%./ / X.o.o.@.@.o.:.;.:.:.,.,.;.3.,.3.5.5.,.;.) A ~ R @.>.2.2.2.N.+X&X&X6X",
"A.!.(.(.$X{.[.3X3X4X8X4Xa ; 6 w > : ; 5 > : r.S.n.c.6.%.o.%.%.' @.@.#.@.,.,.,.,.,.;.;.,.5.5.6.5.,.) ~ A R ~ ' >.v.v.2.N.oX&X=XeX",
"^.!.(.(.{.3X$X3X5X4X9X<X: w q 5 5 6 5 > > ; D M.M.c.6.#.%.@.%.$.#.#.1.,.,.,.:.:.,.;.;.:.,.5.5.:.;.) A A B / ' 2.v.v.-.d.|.&XeXdX",
"Q.(.(.(.(.$X3X3X5X4X8X1X: 6 q > > 6 5 5 5 > : A.m.n.n.4.1.#.#.#.1.1.,.,.,.,.:.:.;.;.;.,.,.,.,.3.) Z B B ! / >.2.N.v.-.-.V.*XpXiX",
"!.!.(.(.3X3X3X5X4X8X8X0X; 6 5 4 5 5 4 4 4 4 ; ^.P.M.5.4.#.4.1.#.1.1.1.6.:.:.:.:.;.;.;.,.,.5.,.;.) A B B ~ / >.2.v.v.-.' v.*XsXeX",
"t.Q.!.$X$X3X3X5X5X8X9Xl.6 9 4 4 4 9 3 3 3 3 q $X;XV.M.4.6.4.4.1.1.4.5.6.5.:.:.:.;.;.;.,.,.,.:.;.~ B A A ~ / ' 2.b.v.-.-.d.R.wXeX",
"O 2 J (.1X3X3X5X5X8X9Xy.9 5 4 3 3 7 3 7 3 3 a 7X,XG.M.n.M.6.4.4.n.5.5.6.:.:.:.:.:.:.,.,.:.:.-.Z N A B A ~ / @.2.N.v.-.-.-.N.;XwX",
". X O (.(.1X3X5X9X9X9Xe.9 7 3 3 3 7 7 8 3 3 p eXqXP.M.n.n.4.1.n.4.n.6.6.6.,.:.:.:.5.,.,.;.;.Z N S B A A ~ ) >.v.N.b.-.-.^ 2.|.wX",
"i O 2 1X{.1X1X4X9X9XtXq.9 7 3 3 3 7 8 3 3 3 p eXqXI.M.M.M.5.M.4.1.n.6.6.6.6.,.6.:.6.6.;...Z -.S N V Z ~ Z ) -.v.N.N.-.-.^ -.F.>X",
"Q.A.u.1X<X1X4X8XtXrX9X0.7 7 3 3 3 8 8 8 8 3 q.rX:XL.5.M.5.M.5.4.#.1.6.6.6.#.:.:.;.;.:.;...N N N N V Z Z ) ) -.v.V.V.2.-.^ -.N.$X",
"<X1X1X1X<X<X4X4X9XyX8Xw 8 8 8 8 8 8 8 8 8 8 q.eX-XG.M.5.M.4.&.M.4.#.&.#.6.O.O.+.;.;.;.;.N N S N N A Z ~ ) ) >.3.V.N.2.-.^ -.N.`.",
"e.Q.<X4X8X4X4X8XtXyX2X9 7.8 8 8 8 7.7.8 8 8 q.eX;XP.M.4.M.5.4.M.4.&.X.O.&.O.+.O.;...Z Z N N N N A B A ) ) ( 2.N.N.N.v.-.( -.v.R.",
"1 1 u J j./.4X8XyXrX2X0 8.7.7.7.7.7.7.7.7.7 q.eX;XH.M.n.4.M.6.4.4.&.X.+.O.O.+.....Z Z Z N N N N V B A ) ..;.>.3.N.b.2.-.-.^ -.T.",
"1 , 1 1 e g L u.].tX0X9.9.7.7.7.9.8.8.7.7.8 0.7X%XI.M.4.M.4.4.4.#.#.+...O.O.........Z N S S N N N N Z Z -.;.2.2.v.v.2.-.-.-.-.N.",
"F i t 2 t F K F F F H 9 9 9.9.9.8.8.8.8.7.8 q.6X#XU.M.4.4.4.&.4.4.&.*.....*.......Z N =.N S S N N N Z Z Z ;.2.2.v.v.v.-.-.2.-.N.",
"H J J H D D g u F 1 1 q a 9 9 9.8.8.8.8.8.9.0.6X;XU.M.4.M.&.4.4.s.#.O.............Z N N N S S N A Z Z ) -.-.2.2.v.v.b.v.v.x.2.d."
};
