/* XPM */
static char *c2e95f9602a44d90e37d761aef5b2581kww9ExtlpsA5FoAT[] = {
/* columns rows colors chars-per-pixel */
"64 64 85 1 ",
"  c #000000",
". c #0C0000",
"X c #130101",
"o c #1E0001",
"O c #220000",
"+ c #2C0101",
"@ c #330101",
"# c #3D0101",
"$ c #420101",
"% c #4B0101",
"& c #530101",
"* c #5D0202",
"= c #630101",
"- c #6A0202",
"; c #770102",
": c #7A0101",
"> c #850101",
", c #8A0102",
"< c #940101",
"1 c #9B0202",
"2 c #A40202",
"3 c #AC0101",
"4 c #B40102",
"5 c #BD0101",
"6 c #B91414",
"7 c #C50001",
"8 c #CB0001",
"9 c #D30001",
"0 c #DB0000",
"q c #E40000",
"w c #EA0000",
"e c #E50E0E",
"r c #ED0A0A",
"t c #F40000",
"y c #FE0000",
"u c #F40B0B",
"i c #FE0C0C",
"p c #E81212",
"a c #FD1212",
"s c #FC1B1B",
"d c #FD2323",
"f c #FE2827",
"g c #FD2B2B",
"h c #FD3131",
"j c #FD3B3C",
"k c #FD4343",
"l c #FE4748",
"z c #FE4B4B",
"x c #FE5151",
"c c #FE5152",
"v c #FD5353",
"b c #FE5252",
"n c #FE5354",
"m c #FD5656",
"M c #FB5B5B",
"N c #FD5D5D",
"B c #FD5F5F",
"V c #FD6868",
"C c #FD6969",
"Z c #FB6E6E",
"A c #FC6E6E",
"S c #FB706F",
"D c #FA7979",
"F c #FC7D7D",
"G c #FB8585",
"H c #FC8F8E",
"J c #FC9797",
"K c #FD9999",
"L c #FD9B9B",
"P c #FDA3A3",
"I c #FDA4A4",
"U c #FCABAB",
"Y c #FCACAB",
"T c #FDACAC",
"R c #FDAFAF",
"E c #FDB5B4",
"W c #FDB8B8",
"Q c #FDBCBC",
"! c #FEBDBD",
"~ c #FEBFBF",
"^ c #FDC7C6",
"/ c #FECFCE",
"( c #FED0D0",
") c #FED2D2",
"_ c #FED4D4",
/* pixels */
"                                                                ",
"                                                                ",
"                                                                ",
"         o>>,,>,,>>,,,>O                o:,,,>,>>>::::O         ",
"         @wyyyyyyyyyyyt$                @ryyyyyyytwwwq#         ",
"         @wyyyyyyyyyyyr#                @wyyyyyyytwqwq#         ",
"         @wyyyyyyyyyyyt#                @wyyyyyyytwww0#         ",
"     XOOO%riiiasssaiiiu*OOOo        XOOO&wyyyyyyytwtwq&OOO.     ",
"     :qqqekzlzHWEWJlzlzpqqq>        >qqqqtyyyyyyyyytyt0885O     ",
"     ,yyyazxccI_)_Ecxxcayyy1        ,yyyyyyyyyyyyyyyyywww0+     ",
"     ,yyyazxccP)))Ymcczayyy<        ,yyyyyyyyyyyyyyyyytww0#     ",
"     :yyyizxzxI_))Encccayyy<        ,yyyyyyyyyyyyyyyyywqwq%     ",
"X-:::6gfdjGHJHDZSSMggggiyyy8::::::::7yyyyyyyyyyyyyyyyywwqw<%*=&.",
"O0yyygxxxC^)/)lyyyyyyyyyyyyyyyyyyyyyyyyyyyyyyyyyyyyyyytqwq07773o",
"O0yyygcxzC^))/ltyyyyyyyyyyyyyyyyyyyyyyyyyyyyyyyyyyyyyywwww07773O",
"O0yyygcxxC^)))zyyyyyyyyyyyyyyyyyyyyyyyyyyyyyyyyyyyyyyywwqw07773o",
"O0yyyhBBNZEWQWkyyyyyyyyyyyyyyyyyyyyyyyyyyyyyyyyyyyyyyywwww07773o",
"O9yyyC~!!Pgdddiyyyyyyyyyyyyyyyyyyyyyyyyyyyyyyyyyyyyyyytqqw07773o",
"O0yyyA_)_Uaytyyyyyyyyyyyyyyyyyyyyyyyyyyyyyyyyyyyyyyyytwwww07773o",
"O0yyyA)()Tiyyyyyyyyyyyyyyyyyyyyyyyyyyyyyyyyyyyyyyyyyyytqqw07773o",
"o0yyyA___Rayyyyyyyyyyyyyyyyyyyyyyyyyyyyyyyyyyyyyyyyyyytwqw07773o",
"O0yyyxLKKFiyyyyyyyyyyyyyyyyyyyyyyyyyyyyyyyyyyyyyyyyyyywwwq05773o",
"O0yyygxxxkyyyyyyyyyyyyyyyyyyyyyyyyyyyyyyyyyyyyyyyyyyyywwww07773o",
"o0yyygccnkiyyyyyyyyyyyyyyyyyyyyyyyyyyyyyyyyyyyyyyyyyyywwqw07773o",
"O0ytygxxnkyyyyyyyyyyyyyyyyyyyyyyyyyyyyyyyyyyyyyyyyyyyywwww05773o",
"O0yyygzzzkiyyyyyyyyyyyyyyyyyyyyyyyyyyyyyyyyyyyyyyyyyyywwqw07773o",
"O0yyyiiaiiyyyyyyyyyyyyyyyyyyyyyyyyyyyyyyyyyyyyyyyyyyyytqww07773o",
"O0yyyyyyyyyyyyyyyyyyyyyyyyyyyyyyyyyyyyyyyyyyyyyyyyyyyywwww07773o",
"O0yyyyyyyyyyyyyyyyyyyyyyyyyyyyyyyyyyyyyyyyyyyyyyyyyyyywwqw07773o",
"O0yyyyyyyyyyyyyyyyyyyyyyyyyyyyyyyyyyyyyyyyyyyyyyyyyyyywwww07783O",
"X>1118yyyyyyyyyyyyyyyyyyyyyyyyyyyyyyyyyyyyyyyyyyyytttt00004:::-X",
"     >yyyyyyyyyyyyyyyyyyyyyyyyyyyyyyyyyyyyyyyyyyytwwww8778:     ",
"     ,yyyyyyyyyyyyyyyyyyyyyyyyyyyyyyyyyyyyyyyyyyytwwqw8778;     ",
"     ,yyyyyyyyyyyyyyyyyyyyyyyyyyyyyyyyyyyyyyyyyyytwwww8777;     ",
"     ,yyyyyyyyyyyyyyyyyyyyyyyyyyyyyyyyyyyyyyyyyyytwwwq8778;     ",
"     ,yyyyyyyyyyyyyyyyyyyyyyyyyyyyyyyyyyyyyyyyyyytwwww8777;     ",
"     ,yyyyyyyyyyyyyyyyyyyyyyyyyyyyyyyyyyyyyyyyyyytwwwq8777:     ",
"     ,yyyyyyyyyyyyyyyyyyyyyyyyyyyyyyyyyyyyyyyyyyytwwwq8778;     ",
"     ,yyyyyyyyyyyyyyyyyyyyyyyyyyyyyyyyyyyyyyyyyyytwwwq8778:     ",
"     *3325tyyyyyyyyyyyyyyyyyyyyyyyyyyyyyyyyyyttttt00001>>>%     ",
"      .  @wyyyyyyyyyyyyyyyyyyyyyyyyyyyyyyyyyytqqw07775@ .       ",
"         @wyyyyyyyyyyyyyyyyyyyyyyyyyyyyyyyyyywwww07777@         ",
"         @wyyyyyyyyyyyyyyyyyyyyyyyyyyyyyyyyyytwwwq7775@         ",
"         @qtttuyyyyyyyyyyyyyyyyyyyyyyyyyyyyyywqqq05554@         ",
"         .#$#$4yyyyyyyyyyyyyyyyyyyyyyyyyttwtw08881#@@@.         ",
"              2yyyyyyyyyyyyyyyyyyyyyyyyytwqww8778>              ",
"              2yyyyyyyyyyyyyyyyyyyyyyyyyywwww9778,.             ",
"             .2yyyyyyyyyyyyyyyyyyyyyyyyyywqww9778,              ",
"              ;4447yyyyyyyyyyyyyyyyyytttu00002,,,=              ",
"               . .%tyyyyyyyyyyyyyyyytwwwq7778&                  ",
"                  %uyyyyyyyyyyyyyyyytqwqq7777%                  ",
"                  %tyyyyyyyyyyyyyyyytwwwq8777%                  ",
"                  $tttttyyyyyyyyyyyytqwq07555$                  ",
"                  X%&%&0yyyyyyyttwww08894%###X                  ",
"                      X7yyyyyyyywwww05772.                      ",
"                      .7yyyyyyyywqww97772X                      ",
"                      .7yyyyyyyywwww08782X                      ",
"                      .<5559ttttqq0q4,<<:.                      ",
"                       ....-wwwq7777=...                        ",
"                           -wwqq8777*                           ",
"                           -wqwq8777*                           ",
"                           &qqqq7577=                           ",
"                           .$%%%$##$o                           ",
"                                                                "
};
