/* XPM */
static char *cat1[] = {
/* columns rows colors chars-per-pixel */
"64 64 233 2 ",
"   c #0F0A13",
".  c #140D15",
"X  c #1A0E15",
"o  c #160E19",
"O  c #190F1A",
"+  c #110712",
"@  c #161216",
"#  c #1A1215",
"$  c #171119",
"%  c #1B131C",
"&  c #1D181C",
"*  c #140C0F",
"=  c #221515",
"-  c #21161C",
";  c #251B1D",
":  c #2A1C1A",
">  c #331C19",
",  c #2E211E",
"<  c #37221E",
"1  c #1D1521",
"2  c #1D1923",
"3  c #211622",
"4  c #241A24",
"5  c #2A1D24",
"6  c #2B1E29",
"7  c #251D29",
"8  c #321F22",
"9  c #2D2223",
"0  c #2C232C",
"q  c #29232B",
"w  c #322525",
"e  c #34262A",
"r  c #36292B",
"t  c #3A2B2C",
"y  c #3A2926",
"u  c #2C2733",
"i  c #332631",
"p  c #362A33",
"a  c #3B2D32",
"s  c #3A2D3A",
"d  c #342B38",
"f  c #3D3233",
"g  c #3C333B",
"h  c #37333E",
"j  c #3D312F",
"k  c #442A2A",
"l  c #44322E",
"z  c #423435",
"x  c #4B3534",
"c  c #41343C",
"v  c #45393B",
"b  c #4B3B3C",
"n  c #4B3A35",
"m  c #563936",
"M  c #51302F",
"N  c #663B3B",
"B  c #4C413E",
"V  c #54413B",
"C  c #60413C",
"Z  c #3C3441",
"A  c #423542",
"S  c #453A44",
"D  c #453C49",
"F  c #493E4A",
"G  c #4A3E42",
"H  c #4B424D",
"J  c #47424B",
"K  c #594847",
"L  c #4D4551",
"P  c #4C4954",
"I  c #514651",
"U  c #534A54",
"Y  c #574E57",
"T  c #5A525A",
"R  c #674A46",
"E  c #64524C",
"W  c #635352",
"Q  c #685959",
"!  c #765C55",
"~  c #77504A",
"^  c #7A6259",
"/  c #5D5D69",
"(  c #685D64",
")  c #745D63",
"_  c #69626A",
"`  c #786665",
"'  c #776D76",
"]  c #7E757E",
"[  c #8C5953",
"{  c #84675B",
"}  c #9A675C",
"|  c #A7665B",
" . c #846C63",
".. c #886E68",
"X. c #8C7368",
"o. c #947A6C",
"O. c #9A7D6B",
"+. c #957567",
"@. c #877778",
"#. c #967B72",
"$. c #906E6A",
"%. c #AA7669",
"&. c #A97D74",
"*. c #B07366",
"=. c #A75F53",
"-. c #9B816C",
";. c #9C8474",
":. c #9C867B",
">. c #A6836D",
",. c #A38574",
"<. c #A48A7B",
"1. c #AA8C7C",
"2. c #A68776",
"3. c #B98676",
"4. c #AB927D",
"5. c #B3947D",
"6. c #C38A7A",
"7. c #7B7B88",
"8. c #877B83",
"9. c #99858A",
"0. c #888A98",
"q. c #948B93",
"w. c #A58C83",
"e. c #AA8B89",
"r. c #B38D87",
"t. c #AC9483",
"y. c #AA948A",
"u. c #B29B85",
"i. c #B4948C",
"p. c #B39C8B",
"a. c #BD9C8C",
"s. c #B79587",
"d. c #A99596",
"f. c #B49492",
"g. c #B59A94",
"h. c #B59B9B",
"j. c #BA9C9A",
"k. c #B99996",
"l. c #A68E92",
"z. c #B6A08C",
"x. c #BCA48B",
"c. c #B9A186",
"v. c #BBA493",
"b. c #BDA39C",
"n. c #B9A597",
"m. c #9899A6",
"M. c #8F93A1",
"N. c #B99EA2",
"B. c #A29BA3",
"V. c #A9A3A9",
"C. c #B9A9A6",
"Z. c #B3ADB8",
"A. c #BAB2B8",
"S. c #AEAAB2",
"D. c #9DA0AE",
"F. c #C69A89",
"G. c #C39D92",
"H. c #C08E84",
"J. c #C3A48E",
"K. c #C3A495",
"L. c #C4AB94",
"P. c #C3A59B",
"I. c #C4AC9B",
"U. c #CBA996",
"Y. c #CAB39D",
"T. c #C7B098",
"R. c #D2B29E",
"E. c #D1AA96",
"W. c #C4ADA3",
"Q. c #CAACA3",
"!. c #C7A9A5",
"~. c #C6B2A4",
"^. c #CAB4A5",
"/. c #CAB5AB",
"(. c #CCB9AC",
"). c #C9B5A8",
"_. c #D4B4A2",
"`. c #D5BBA5",
"'. c #D3BCAB",
"]. c #DABDAB",
"[. c #D6B9A8",
"{. c #CDBCB3",
"}. c #C8B8B6",
"|. c #D1BCB4",
" X c #D2BDBA",
".X c #D8BDB5",
"XX c #C3AFB1",
"oX c #DCC2AD",
"OX c #D6C2AB",
"+X c #CEC1B8",
"@X c #DCC4B2",
"#X c #D5C2BC",
"$X c #DAC5BA",
"%X c #DCC9BB",
"&X c #D9C5B5",
"*X c #E3C9AE",
"=X c #E0C5AD",
"-X c #E1C6B2",
";X c #E4CBB4",
":X c #E4CCBA",
">X c #E8CDB8",
",X c #E9D2BB",
"<X c #E7D2BF",
"1X c #BCB5C2",
"2X c #C6BDC6",
"3X c #CBC2C9",
"4X c #D4C4C3",
"5X c #D9C6C3",
"6X c #D5C9C6",
"7X c #DCCBC5",
"8X c #D4CBCA",
"9X c #DBCDCB",
"0X c #D9C6C9",
"qX c #DCD1CD",
"wX c #DFD1C4",
"eX c #DDD3D3",
"rX c #DCD6D7",
"tX c #D7CBD0",
"yX c #E1CDC7",
"uX c #E4D3C5",
"iX c #E2D4CC",
"pX c #E8D7C8",
"aX c #E2D4D3",
"sX c #E6DAD4",
"dX c #E9DCD4",
"fX c #E4DCDC",
"gX c #E9DFDA",
"hX c #E0D7D8",
"jX c #E9E0DD",
"kX c #E7E0DF",
"lX c #E7DFE0",
"zX c #E7E0E1",
"xX c #E9E1E1",
/* pixels */
"w p 8 7 O + X X k m k n , % % # O O % # % 1 % % % % % % 1 % % % $ % o % $ % $ $ $ $ $ % % % # % % o o @ $ $ $ $ % $   @   @ $ $ ",
"8 i i 6 O + . X y K y l 9 - # # % O % % % % $ o # 1 % 1 % 1 # % # % $ $ $ % % % $ % % $ % $ $ # % % . $ % % & @ % $ $ @   @ % $ ",
"8 i d 6 3 + . . ; K x l w - % # O 1 1 3 % % % o O 1 % 1 % 1 % % % % $ % $ % % % % % % % % $ % 1 % % % % $ $ % $ % $ & $ % $ % % ",
"8 a 8 6 % + + . # K K y : - # # O O O 3 1 # o 1 % % 1 O 1 % # % % o # % $ % $ $ % % o # $ % % 1 1 @ % % $ $ % % $ $ % % & & % $ ",
"e a e 8 4 +     # z E y : = # % O O O 3 % $ o 1 O 1 % 1 % % # O o % % % $ % % $ % % o $ % % 1 % % % % % $ $ % % % @ % $ % $ & % ",
"e e p 6 4 +   o # w K t : = % 1 1 O % 3 1 $ 1 % % % % % % % % % o % % % & $ & % % 1 O % % % % % 1 % % % $ % % $ % % % @ $ $ % % ",
"w e p e 4 o + o $ 5 b k : - % 3 1 O O 1 1 o o 1 % % % 1 1 1 O % % % % % % $ % % % % 1 % % 1 % $ % & % % $ $ $ $ % @ $ % % $ % $ ",
"8 w t p 6 + + + . - b z , = 3 - 1 % # % 1 o . 1 % % # 1 % % 1 % % 1 % % % $ 1 % % % % % % % % $ % % & % % 2 % & % % % % % % % $ ",
"w w r t 6 o     o % f ` n = - 1 4 % % % 2 # $ % $ % # % 1 % % % $ 1 % % 1 % % % # % 1 % 1 % % % % % % O 1 O O 1 % o % . o O % % ",
"e r t r 6 o .     X ; l.n.K = - = % % % 4 % @ % % % % 1 1 1 % # $ % 3 1 o 1 1 % % 1 1 % % # $ % % % % % % 1 % 1 O o % % o 1 % % ",
"e r a p 0 % .   . X = ^ C.!.K : - - # % 4 % @ % % $ % 1 % 3 % 1 O 1 % 1 % o % 1 % 1 1 % & % # 1 % % % 1 1 O O % 1 1 $ $ % 7 1 $ ",
"r t z a d 3 +   . o = b 9.G.C.Q : = % O 3 1 . % o % O 3 O % 1 4 % 1 O % % 1 % % % 4 1 & % % 1 % 1 3 3 O 3 % O % % $ % % P 8.u % ",
"w e y r i 4 +     X = x +.i.!.XX@.r % O 4 4 % $ $ % % 1 & $ % 4 3 3 O 1 % % # # 4 3 % $ % % % % % 3 O O % % % O - % 9 Q V.d.0 o ",
"w e t t p 4 o   . + = x $.i.i.!. Xh.W ; 4 7 O O o % % % # & % & 3 3 O 3 % % & % 4 % % % & % % % O 3 % % % % - - 5 b @.C.V.@.3 1 ",
"w t t t p 6 $   . o * w R e.s.G.Q. X}.( p q % 1 % 2 % % & & @ & 3 3 O % % % % 4 4 % % % $ # & % % 1 % 1 3 % 5 t ) f.!.l.9.Y 3 # ",
"w e p l s 7 %   . + o X M #.s.F.F.!.0X0Xd.T 7 4 e u w q q , ; , - 6 O 3 - - , 9 w q 4 & $ % % % O O O = 5 b Q w.!.!.f.9.@.Z % @ ",
"e t t t p i 3 o   + * # x $.i.G.G.G..X0XaX2X8.S Q W W K ( Q T T p u q 9 S Q Q T ( Q d % O 3 - O O X - k ..h.}./.!.i.e.l.( i - # ",
"e r t r p p 3 o + @ * # 8 m w.H.G.G.N.}.2XgXrXN.A.A.A.C.+X+X3XA.V.d.q.0.A.8X8X8X}.S.' g 6 d 6 3 - p ..h. X#X{.j.i.i.l.9.Y 5 X X ",
"y r j t s s 2 o   + * + # x $.r.G.a.G.!. X9XrXrXfXsXsXsXzXzXzXzXrXkXfXrXkXkXlXlXzXzXtXd.8.8.) Q W l.4X5X#XQ.f.f.f.l.l.8.S 5 = X ",
"9 e t r p c 7 1   . @ * X x ! r.a.F.G.!.|.2XeXlXrXfXfXjXxXxXzXzXzXzXzXrXkXkXlXfXfXzXlXhXrXtXyX2X#X7X0X XW.g.g.f.l.f.l.( 6 - = X ",
"9 w y e t c i 1 @ . .   + 5 z $.r.F.G.Q.|.7XeXaXrXjXjXjXjXjXjXjXzXxXxXxXlXlXlXlXzXzXlXfXlXlXdXdXyX$X|.j.k.f.j.h.f.9.9.Y 3 # # # ",
"9 e w e e c 0 1 + . . . X 3 6 ! r.F.U./..X7XyXiXeXsXsXjXjXjXsXjXjXxXxXxXlXlXlXlXrXzXrXfXgXlXsXyX5XQ.G.f.h.k.G.!.h.9.` u - @ # % ",
"9 t e r w g d 7 o + + o O - t  .i.s.G./.$X7XqXiXiXsXdXjXjXjXjXjXjXkXzXzXlXhXfXfXhXfXhXhXdXyXyX.XQ.G.r.f.k.h.k.N.N.9.K , @ # # # ",
"w e y r e b A 4 + . + o o # a E +.s.F._.@X%X7XiXpXsXdXjXjXjXdXjXjXjXkXkXfXhXhXhXhXrXaXiXyX2X XQ.i.3.&.r.k.N.N.h.l.8.f & @ # @ @ ",
"9 w r r w v H 7 . + o . . 1 5 w R w.G.'.oX%X%XwXqXsXdXjXdXjXdXjXsXsXsXhXhXaXeXeXeXaX9XyX5X(.Q.G.H.*.8.H.f.N.C.C.q.( u % @ * @ # ",
"9 w a t r v H 6 O + .     1 ; , x &.Q..X%X%X$X%XwXpXpXdXdXdXpXjXsXiXeXqXeXeXyXeXeXqX9XyX X|.Q.G.H.6.H.8.f.k.N.N.q.L 4 % @ @ $ @ ",
"9 r t t f c H i %   . . + O ; : n w.|.$X&X$X%X%X<XpXpXdXpXdXsXsXsXiXqX9X9XtX0X9X9X9X7XyX$X|.^.P.G.f.f.f.k.e.f.h.8.D 3 % @ @ $ & ",
"w r t j t S U s 2 @ .   + X - > m f..X#X&X&X%X%X%X<X,XpXpXpXpXpXuXqXwX9X9X9X9X9X8X6X0X5X$X.X{.Q.N.G.f.f.N.G.l.9._ i % % $ @ & @ ",
"9 r t t v U Y s 4 . +   + o - < R n..X#X@X@XoXoX@X,X,XpXpX,XuXuXyXyX7XyX9X9XtX9X9X6X6X#X.X{.(.^.Q.G.f.f.e.h.h.' F 0 o $ $ @ @ $ ",
": r z t z H U Z 4 @ o + o o O k { ~..X@X.X@X].oX;X;X,X,X,X,X<X:X$X:X$XyX9X9X9X9X0X0X6X#X.X{.^.Q.!.G.k.h.f.f.h._ i 2 o $ $ @ & @ ",
"w e a r r c H g 4 o + + + + % l ;.(..X].].oX].OXoX;X,X,X,X>X;X@X].].#X5X5XyX9X9XyXeX0X#X{.{./.Q.^.b.f.g.h.b.C.T 7 O $ $ @ & @ @ ",
"t t t e r c P L 7 %     + + 1 K f.|.[.^._.oX].oXoX*X,X,X>X;X@XoX[.`.|..X X2X0X9XtX9X9X7X#X|./.^.^.W.j.f.g.W.d.g X O $ @ @ @ @ @ ",
"r e r r d D P P 7 $     * @ 4 W n.R.J.+.>.L.`.=XoX*X>X>X*X*X*XoX`.].'.+X|. X6X0XqX9XaXyX5X.X(./.).XXb.p.p.C.:.q @ @ @ . o @ # # ",
"e t k r s Z P Y u 2     * @ ; Q Y.R.J.~ k R >.R.*X*X*X>X*X*X*X=X`.R.T.a.v.b.}. X6XqXiXeX9X6X4X X#X#X/.f.n.C.Y 2 * @ o X @ . @ # ",
"r t a r d A J P Z 2 @ @   * w #.'.=X=X+., = M J.oX;X;X>X*X*X;XOXL.,.+.O.m R :.W.$XqXeXaXhX9XeX9X7XqX6XC.+XS.h @ @ X o o @ @ @ @ ",
"t t p r s D J Y Z 2 @ @ * = V p.].=X*X5.C = k G.@X;X;X;X*X;XoXF.{ M < V k V t.(.%XiXiXeXiXeXeXeXqXqXeX8X8XA.Z @ # o O o . @ @ @ ",
"r r r p c F L U Z 2 $   @ : C c.oX*X;X*XL.o.X.^..X].].-X;X=XR.} M < > > m 1.@XyXuXuXuX9X7X8X8XqXqXqXrX8X8X1XJ @ # o o . @ @ @ @ ",
"r p t p A F I U J 2 2   * , E L.].oX*X,X>XoX'.'.[.].].=X].].E.&.[ R m [ a.].:X:X7XuX7X9X6X6X9X8XrXrXrXrX8X+XT & . O o . @ . @ @ ",
"p e p p s S I I D 7 2   * , ^ L.OX*X*X,X>X-X]._.[.].].-X].]._.R.U.U.U.].-X;X:X:XyX%X7X6X6X4X6X9X8XqX8X8X8X3X' 7 # o o . $ @ @ # ",
"t e r p p S I L H 7 1 1 @ ,  .v.Y.oX*X*X;X;X]._._.].].].].].-X-X@X=X;X;X:X-X:X:X5X$X4X#X4X4X6X9X8XqX8X8X3X2X7.q O o @ @ $ @ & @ ",
"e e e i s F U I F i % O X 9 ..v.Y.OXOXoX@XoXR.E.E._._.].].*X;X;X;X>X>X;X;X:X%X%X%X+X+X#X X2X5X4X8X3XtXtX3X1X7.7 % O $ . @ $ $ $ ",
"e r t p A Y Y U F d 3 % # w  .v.v.Y.`.OXoXY.J.F.F.E.E.].=X*X;X>X>X>X>X>X;X;X@X&XOX)./.{.{.|..X{.#X0X3X2XtX2X8.7 1 o o . . @ $ $ ",
"r r i p A Y Q L S i 3 % % w ..v.x.n.Y.`.`.T.3.6.6.*.3.E.].*X>X>X:X;X>X;X&XOXOX+X).C.XX{.}.{.{.{.}.{.2X2X2X1X0.Z 1 o o . @ @ & $ ",
"r 9 p a c F I L D d 3 O # ,  .v.c.u.v.`.`.E.>.6.6.| *.6.R.>X-X>X@X-X-X@XOXOXOX).~.~.~./.{./././.~.A.2X2X3X1X0.Z 1 o . o % @ $ & ",
"e 6 8 s c A F F D d 7 1 % w @.j.t.<.p.K.R.`.5.=.=.=.| F.].>X;X@X@XoXoXOXR.Y.~.n.n.n.I.~.(.(.~.~.Y.~.XX2X1X1X0.Z 2 $ % . @ . o 1 ",
"t t a c c A F F D i 7 3 1 w ..N.e.,.1.x.T.`.E.*.=.6.E.[.-X>X*XoXOXoX^.T.x.x.z.p.p.n.v.C.~.^.).).~.~.XXA.1X1X7.u 2 o .   . . % % ",
"r t e k A D Y F D u 6 3 - e ..d.w.:.5.a.L.R.E.6.| H.R.oX@XoXoX`.Y.`.Y.T.x.z.t.t.p.n.I.~.^.~.).).)./.XXA.1X1X7.Z 2   @ .     @ o ",
"e r e a A F Y U D d i 3 q c  .l.w.:.1.5.c.5.6.6.*.6.J._.[.[._.(.Y.`.Y.n.z.z.z.z.v.b.~.~.~.).(.).{.{. X2X1X1X7.Z 1 o % . . . % 1 ",
"w e r t B I I L F s s i i g ) w.;.;.;.:.1.r.8.6.| 3.6.F.L.I.^.Y.Y.I.I.x.u.y.p.n.n.T.~.~.~.(.(.(.{.{.2X2X2X1XM.Z 2   o   o . % 1 ",
"y w r f J U U H D s A p 5 z Q w.<.:.-.-.-.,.| [ =.=.&.s.z.a.K.K.L.J.K.a.t.p.z.x.n.n.C.Y.~.~.).(.(.+X5X2X3X1Xm.J 2 o .   o   $ % ",
"w y r t v U I H F A c t p z E e.<.:.-.X. .^ N N N N [ &.1.s.p.i.s.u.s.1.<.4.z.z.v.T.Y.~.Y.).~.(.+X+X4X3X3X1XD.P 7 1   o . o $ $ ",
"w w r w z H I L F s p s f a ! t.4.4.<.X.^ R M k k M k R { +.,.2.1.<.4.,.-.:.4.z.n.T.C.T.Y.C.).+X+X{.4X3X3X1XD.T 2 o o   . $ $ % ",
"w e j j z J U L S s c c p j ^ t.u.u.t.:.{ R M M M N M N N N { $.;.o.X.X.{ +.;.4.z.c.n.I.~.~.(.{.'.+X+X3X2X1XD.T 4 o o . . $ $ % ",
"w e j f B I L J A c S f w w ^ z.c.c.z.4.X.^ N ~ [ =.[ ~ N N ~ ! { ^ ! {  .O.,.4.4.u.v.K.T.~.~./.{.{.+XA.1XZ.m.P 4 o o o . . $ $ ",
"w t j f B K J J S s v g , j -.p.z.z.z.t.#.{ ^ [ } +.| } ~ N R ~ ! ~ ^ X.-.4.5.5.u.x.J.J.I.^.Y.C./.}.}.A.1XS.M.P 2 # @ + . . @ # ",
"r r j B J J J J D s J g q j ' y.z.z.z.c.:.X.-.-.%.%.*.%.| $.$.$.+.X.+.-.<.5.x.L.T.L.U.L.T.n.OXOXXXC.A.A.Z.S.M.P 1 o @ + @ $ % % ",
"w r z b B H L H A A F s 6 p ^ p.p.z.z.z.:.-.;.4.2.3.3.3.&.2.<.<.-.-.-.>.4.c.L.T.T.T.T.T.x.T.C.Y.C.~.Z.Z.Z.D.0.Z 1 o . . @ @ $ % ",
"t r f v B H J H A S S p e i T <.z.z.z.y.:.-.-.;.>.>.>.>.>.<.4.:.;.-.-.-.4.5.x.x.L.T.T.T.n.T.n.n.~.S.Z.Z.D.D.7.u . . X + . . $ $ ",
"t t z b B H L F A A A s i i b O.t.p.u.4.:.-.-.-.>.>.%.+.%.,.:.;.@.-.+.-.5.5.c.x.L.T.T.T.n.v.x.z.V.V.S.Z.D.0./ u . o o o $ $ # $ ",
"t t f n B H L D D Z s p i 5 b #.y.4.u.u.<.-.-.-.-.-.O.O.+.+.X.-.`  .{ -.5.5.L.x.5.x.x.x.n.x.x.z.n.V.D.D.M.7./ u O . o o # o $ $ ",
"w j j v b F F D Z Z A k i 3 k ! 4.<.4.4.;.,.X.X.X.{ +.-.-.{ { ^ E ^ -.4.x.x.T.T.L.5.T.L.z.z.z.n.n.V.V.D.m.M.7.J 6 O + . $ o # $ ",
"u r h v v F L F A s A c i 5 8 R 9.:.:.<.;.:.@. .^ ! ! ^ ! ~ E C K E ^ 4.4.4.4.4.5.4.4.4.y.t.t.y.B.m.B.M.M.D.M.' S 6 O . o $ % $ ",
"r r v v s A Z Z 0 i 6 6 6 6 8 b E W V V B n z v n n l n V l j j j w y l l n V V V V V E K E E Q Q Q ( / _ / P h q 1 % O % % % o ",
"; ; & ; 6 1 1 O o o O 3 4 6 z z l l y , , , , w y < k l j , , , , , , y < y y j j j B B B B B E T E E T P J u 2 & 1 1 1 1 % % O "
};
