/* XPM */
static char *cat6[] = {
/* columns rows colors chars-per-pixel */
"64 64 242 2 ",
"   c #050506",
".  c #0B0606",
"X  c #0E0807",
"o  c #060609",
"O  c #09070A",
"+  c #07080A",
"@  c #09080B",
"#  c #130906",
"$  c #140B0A",
"%  c #190D0A",
"&  c #110706",
"*  c #1C130E",
"=  c #15100E",
"-  c #0F0E11",
";  c #120F10",
":  c #1C1413",
">  c #1A1617",
",  c #0F1114",
"<  c #24160E",
"1  c #241B14",
"2  c #2C1D14",
"3  c #251C1C",
"4  c #251A17",
"5  c #2B221C",
"6  c #2A2217",
"7  c #322316",
"8  c #37271C",
"9  c #1C1A21",
"0  c #251E26",
"q  c #2C2422",
"w  c #282429",
"e  c #332A23",
"r  c #332B2B",
"t  c #372925",
"y  c #3C312A",
"u  c #393436",
"i  c #332E32",
"p  c #432B1D",
"a  c #53351F",
"s  c #452C25",
"d  c #44352B",
"f  c #4B392C",
"g  c #493427",
"h  c #54362B",
"j  c #573B28",
"k  c #443A33",
"l  c #4C3C33",
"z  c #463B3B",
"x  c #533E34",
"c  c #5B3F35",
"v  c #5C422D",
"b  c #54402F",
"n  c #4C4239",
"m  c #5C4335",
"M  c #54453C",
"N  c #5B4B3D",
"B  c #594638",
"V  c #61432D",
"C  c #634A35",
"Z  c #644C3B",
"A  c #674837",
"S  c #6B523D",
"D  c #63503E",
"F  c #72523C",
"G  c #423D43",
"H  c #4B4545",
"J  c #554B43",
"K  c #5C4D43",
"L  c #564A48",
"P  c #5C5347",
"I  c #5A5454",
"U  c #514D54",
"Y  c #644D41",
"T  c #645444",
"R  c #6C5443",
"E  c #64564B",
"W  c #6B564B",
"Q  c #645A4C",
"!  c #6C5B4C",
"~  c #6E5945",
"^  c #745542",
"/  c #745C45",
"(  c #7A5B45",
")  c #725C4B",
"_  c #7B5A46",
"`  c #6C5D54",
"'  c #675C59",
"]  c #765E55",
"[  c #7B624C",
"{  c #75604C",
"}  c #6C6254",
"|  c #6C645E",
" . c #736354",
".. c #7C6554",
"X. c #73645B",
"o. c #756B5C",
"O. c #7B6A5D",
"+. c #7A655A",
"@. c #605D60",
"#. c #6B6363",
"$. c #7B6C62",
"%. c #746965",
"&. c #7A7265",
"*. c #7A7474",
"=. c #726C72",
"-. c #825E48",
";. c #83634D",
":. c #89644F",
">. c #836A54",
",. c #8C6A55",
"<. c #8A6E59",
"1. c #836856",
"2. c #906D5A",
"3. c #8C735D",
"4. c #83705F",
"5. c #92725D",
"6. c #826E62",
"7. c #936E67",
"8. c #837265",
"9. c #8C7662",
"0. c #8D7A6C",
"q. c #88786A",
"w. c #937463",
"e. c #947A64",
"r. c #93746B",
"t. c #9A736B",
"y. c #937D6C",
"u. c #9B7C6B",
"i. c #9A7865",
"p. c #8C7D72",
"a. c #867A74",
"s. c #9A7C73",
"d. c #937C72",
"f. c #A37D75",
"g. c #9C836D",
"h. c #95816C",
"j. c #8C8279",
"k. c #948374",
"l. c #9C8572",
"z. c #9D8874",
"x. c #9B8579",
"c. c #948A7B",
"v. c #9C8B7D",
"b. c #918679",
"n. c #9B907F",
"m. c #A1866F",
"M. c #A38573",
"N. c #A38A74",
"B. c #A48D7C",
"V. c #AB8D7C",
"C. c #A78679",
"Z. c #A6917D",
"A. c #AB927C",
"S. c #A99176",
"D. c #B1957F",
"F. c #938B84",
"G. c #9D8D81",
"H. c #948D8A",
"J. c #9C9383",
"K. c #9D958C",
"L. c #9C9696",
"P. c #8B8688",
"I. c #A38D82",
"U. c #AA8D82",
"Y. c #A39285",
"T. c #AB9484",
"R. c #A59689",
"E. c #AB968A",
"W. c #A49B8C",
"Q. c #AC9A8D",
"!. c #A99986",
"~. c #B39B85",
"^. c #B3948B",
"/. c #B39C8C",
"(. c #B69589",
"). c #A49D93",
"_. c #AD9D91",
"`. c #A59D99",
"'. c #B39E92",
"]. c #BA9C93",
"[. c #B49F9B",
"{. c #B18D84",
"}. c #B4A18D",
"|. c #BBA38D",
" X c #BAA187",
".X c #ABA394",
"XX c #AEA99B",
"oX c #AAA398",
"OX c #B4A394",
"+X c #BCA594",
"@X c #BCA996",
"#X c #B4A599",
"$X c #BAA59A",
"%X c #B3AA9B",
"&X c #BBAA9D",
"*X c #B4A896",
"=X c #BAB09E",
"-X c #A7A08F",
";X c #ADA5A2",
":X c #AEA8A8",
">X c #B3ACA3",
",X c #BEADA1",
"<X c #B5ABA9",
"1X c #BBB2A3",
"2X c #B9B2AB",
"3X c #BBB4B2",
"4X c #A49FA1",
"5X c #C19C92",
"6X c #C3AD9C",
"7X c #C1A796",
"8X c #C4B19E",
"9X c #C1AEA2",
"0X c #C3B2A5",
"qX c #CBB6A5",
"wX c #C5B5A9",
"eX c #C9B7AA",
"rX c #C5BAAB",
"tX c #CBBAAD",
"yX c #CBB9A5",
"uX c #D1BCA8",
"iX c #C3BAB5",
"pX c #CBBEB2",
"aX c #C4BCBA",
"sX c #C5BBB6",
"dX c #D0BDB1",
"fX c #C9C0AF",
"gX c #C7C0AE",
"hX c #CCC2B3",
"jX c #CAC2BB",
"kX c #D2C3B5",
"lX c #D3CABB",
"zX c #D7C8BB",
"xX c #CBC4C3",
"cX c #CBC6C6",
"vX c #D3CDCB",
"bX c #D4CAC3",
"nX c #DAD2CB",
"mX c #DBD6D5",
"MX c #E2DCD9",
"NX c #EAE6E6",
"BX c #F1ECED",
"VX c #E6E1DF",
/* pixels */
"@ + + @ O O O O O O @ - O O o o   o o O o o o o o o o o < < % $ & & . . O & . +                                                 ",
"@ + + + O o O O O O @ @ @ O o o o o o o o o o o o o o : G A c h q $ . o O O                                                     ",
"+ + + + o . O O O O O @ O O o o o + O @ + o o o O O . 4 h h c c ^ Y 0 & O   O .                               o                 ",
"      + o o o o O O O @ + o o o + o @ o o   o   O O & * s h V V j ^ ] 5 & . . .                           o o O                 ",
"+ + o o o O o O @ + + @ @ o o o o @ @ @ @ o + @ O O & % s h A F F V C ) 2 & X . . .                   .   O O O                 ",
"+ + o o o o o o o o @ + o o o o o o o o @ o o o o o o & s h A -.-.F F A Z : & . o o o o             o O @ O o +                 ",
"o o o O o o o O o + @ @ o o o o o o o + + @ o @ O O o & 8 c -.-.:.2.-.A c l # & $ O +                 o @ O O +                 ",
"o o o . o o o o o o o o o o o o o o @ o + + @ @ O O o . 2 h ^ -.:.2.2.-.V Y d % X O o                 O O @ O +           +     ",
"o O o o o o o o o o o o   o o o O         o + + O @ O . % g F -.-.,.2.,.;.Z T l # X O O +     . . . O O @ + + +     + + O @ O O ",
"O o o O + @ + + o o o o o o o o   + + + + o + + O @ O O # p -.:.,.2.2.,.>./ C T f # X   O . . . & O & O @   +       + + O O @ @ ",
"O o o O @ + + + o o o o @ + o o + + + O o o o o O O o o . 2 C ;.:.<.,.,.,.[ ^ V ] d = X . O X & . & = > = $ = -   .   + . & @ > ",
"O o + + + + + o o o o o + + o o O + + + + + o o O O o . . < b [ <.5.5.h.5.3.:.A R ] K u q t 0 0 r G H z r q y u z q 4 % $ % 3 L ",
"o o O O @ o o + + o o + + o o o + + + +   + + + o o o o + 1 ! h.m.g.u.m.u.i.,.F V 1.f f y 5 3 4 4 3 3 : 1 1 1 1 e d N b B K W c ",
"O o O O @ + + o o o o + o o o o + + @ + + o + O o o     X >  .>.m.m.N.S.m.5.3./ ^ ) ) 8 8 2 1 3 0 $ 3 3 5 > : 2 7 7 7 7 h ] Y h ",
"@ @ O O @ + + + @ + + + @ @ o o @ + O O O + + + o o o   + : o.M.S.A.N.m.m.m.5.[ R N T 8 2 1 1 3 3 * 3 3 e > * 6 1 7 2 7 b S h h ",
"O o o o + + + + + + @ + + + o o O + + + + +   o o o o o   : k.A.S.S.m.M.N.m.5.>.R C 8 7 2 6 5 r q * q 1 5 1 : : 6 7 7 B / C g j ",
"@ o o O O O o o + + + + + + o o + + o + + + o + + +       : 8.M.S.S.m.m.m.m.h.>.C p 6 * 1 r r n k 1 5 6 5 : 5 7 y s B / S v v C ",
"o o   o o o o o o o o o o o o o + o o o o o o o + + + +   $ ] 5.m.S.m.g.g.g.3.[ b 8 < % 8 n J P n r q e 6 = e y f b ~ [ ) ( ( ( ",
"O o O @ + o o o + + o o + + + o o o o o + o + o @ @ O @   = 6.w.M.M.m.3.<.>.Z m a b 8 8 P &.b.a.} J 5 : * 6 7 d p j m S ^ 2.5.;.",
"@ o o o o o o o o + @ @ + o + + + o + o o o o o   +     . 1 0.t.i.2.<.<.;./ v C b D N o.b.n.1XK.j.&.e : 5 b d 7 8 b v A F 3.5.>.",
"O o o o o o o o o + + + o o o o o o o o o o o o +   . . X y x.f.i.:.:.:.( >.{  .Q 4. .!.#XXXrX%XoXb.k 6 P Q N 8 8 s g j C / ;.>.",
"O o o o O o O o o o + o o + o o o o o + o + o o + O O . & %./.s.5.:.;.:.S ....+.o.n.J.=XrXrXgXgX2Xc.Q n n T ! b g s h h j m S / ",
"o o o     o o o o o o o o o o o o o o o o o o     . O $ $ p./.u.2.[ F [ S ..6.4.0.#X&X0XrXpXhXlXgX-Xb.Q M P Q Q W Y c C m C S D ",
"O o o O o o o o + o o o + o + + + o + @ o @ o O O O O O $ q.Z.h.,.[ ( [ R 8.6.q.Q.wX,X0XwXrXrXhXhXgX=X&.Q } } S W ) h Y C D S Z ",
"o o o o o o o o o o o + o o + + o o o o o o o o   +   . #  .z.3.>.[ [ [ 4.v.0.c.&X,X,X9XwXwXrXpXfXlX2Xq.} +.T x c c h A c A ^ R ",
"o O o o + + o o o o @ @ @ @ @ @ + + + o o o o O O +   . % { 3.3.<.5.3.3.h.!.v.Q.%X&X,X,X0XwXeXpXfXlXhXc.&.p.$.K K c c Y Y A S R ",
"o o o o o o o + o o o o o o o o o o o o o o o o @ O o & d { { [ <.5.h.0.v./.Y.#X#X#X,X0XwXeXrXtXdXkXkX%XJ.v.8.) ] ^ c c Z Z V m ",
"o o o O + o o + o o o o @ o o o   o o o o o o o O O O 2 D S { { [ O.h.q.B.R.R.OX#X#X,X9XwXrXtXtXtXtXpXrX1XR.p.W ) Y Y Y ^ ^ S Z ",
"O O o + @ + + + + + + + + + + + o + @ @ @ @ o O O . : d l T T N K P E ` $.q.G._.'.,X,X1XeXtXtXpXtXtXtXtXrXQ.p.9.6.+.1.4.) ^ R R ",
"O o o o o o o + + o o o + o o + + o o @ @ + . o . $ t l b M n r 5 q > w L K &.Y.'.$X&X0XeXtXtXtXtXeXeX0X%XR.v.k.x.s.r.;.) / ) ~ ",
"O O + o + + @ + + @ + + o o + @ @ @ @ @ + + o . X y J x Q ! M 8 > > , w I r Q k._.&X9X9XeXeXeXtXrXwX0X>X.X!.n.k.s.x.z.e.3.) S S ",
"O o o o o o o o o o + o o o @ @ @ @ o o o o o o 3 Y M K X.&.P 6 , > 9 u i k L 8.I.#X9X9XeXtXeXtXtX0X0X#XW.b.q.q.Q f Z 3.3.{ Z R ",
"  o o o o o + o + + + + +   + @ O + o +   . . # n N n M o.&.Q 6 > 9 G =.t G Y 6.x.'.,X9XwXeXeXeXtXwX,XR.a.} ` Q J y 7 8 T T W ! ",
"+ o o o + o o o +   + +   + + + O + o +     . 5 P n b N } &.Q w 9 , 0 w G W K 6.x._.#X,X9X9XwXeXeXeX#Xx.] k r r u y z e f l b n ",
"o o o o o o o o       + + @ @ w u -   +   + & K P f b N Q o.o.M w : 0 t L $.K 6.v.E._.&X9X9XwXeXeXwXOXp.L r 0 0 i 9 q 8 f M e 6 ",
"+ + + + + o o o + + + . + @ u 3XcXI + @ +   * ! B g d N Q o.q.&.J r t k x l L 7.G.E._.#X&X,X0XwXeX9XQ.$.L i 0 U U > > 5 n Q P d ",
"o + o o o   + o + +     + > 3XNXvXH.@ @ @ + e ! a p b T } } j.c.b.$.X.O.%.` 6.s.I.Q._.#X,X,X0XwXwX9XI.o.P z 0 G G 9 3 5 n } o.Q ",
"+ + + + +   + + +       O I mXvXxX;X0 @ @ . P S v v B o.&.h.c.n.XX1X#X#X[.I.Y.E._.R.Q.].$X,X9XeXwX$Xd.E P #.k 0 0 4 0 k P X.o.o.",
"o o o o o + + + X +     o #.xX3XiX3Xi O X * 9.F v v S 4.c.n.W.XX1XkXzXkXwX%X_._.E.E.E.'.].$X&X9X9X$X0.W K L #.=.I t z ` o.| } P ",
"o o o o o + +           O *.xXaXaXaXH O . 1 h.F j a S h.n.W.XXgXkXlXkXfXtXwX#X'.T.I.E.^.].].'.$X9X$XG.q.8.$.` +.X.L  .$.%.o.o.o.",
"o o o   + +   + +   + > r :XmXvXxXxXG     6 e.S j V [ h.c.W.=XgXlXlXhXfXyXrX0XOXB.I.T.].].].].$X9X&X'.'.[._.p.8.%.+.$.O.O.o.j.F.",
"o o o o   + + + @ U 4XcXvXNXBXmXnXsXr     2 3.F j V ( h.n.W.XX=XgXgXfXfXtXkX0X{.s.C.{.].[.6X[.].9X9X9XtXkXtX$X_.s.6.+. . .$.c.).",
"+ + o o +   o - =.VXBXBXBXVXmXcXmXaXw +   5 y.[ F [ ..h.n.-X.XXX1XrXgXgXtXkX9XI.s.U.^.].].$X'.'.wXeXuXzXbXdX&XR.s.8.%.] X.a.K.:X",
"o o o o @ @ - =.NXBXBXMXMXnXjX>XiXvXH O . 5 c.3.[ { 3.l.n.-X.XXXXX>X=X=XwXeX&Xy.7.f.(.^.^.{.{.].eXdXzXbXzXbXtX&XR.d.8.%.o.j.-X>X",
"+ + + @ @ @ I NXBXNXmXnXlXkX>XR.XXvX*.@ . > k.9.[ [ h.n.W.W.-X.XXXXX=XXX=XyXOXr.7.C.5X5X(.V.U.^.eXdXzXzXbXzXkXeX=XJ.h.q.j.n..X>X",
"+ + @ @ - w xXNXMXvXlXlXlXfX.Xc.J.1XL.: + $ o.g.3.h.A.}..X-XW.W.XXXX%X%X=X=X}.0.7.C.5X5X5X{.C.{.qXzXzXzXzXkXkXtX=X-Xc.b.c.J.XX1X",
"+ + + + + P.NXNXmXvXlXlXfX8XT.l.c.-X2Xu . . N !.D. X=X0X%X*X.XW.-X-XXX.X.X@X!.g.f.t.f.V.{.f.f.(.qXuXuXqXtXtXrXrX1X.Xn.n.W.-XXX=X",
"+ +     w cXNXmXcX3X1X=X|.|.M.g.g.Z.%XM X . 8 +X8X8X8X0X&XOXW.J.W.W.-X*X*X}.}.Z.f.7.7.u.f.5X(.5X6X9X6X9X1XrXrXrX1X.XW.-X-X.XXXXX",
"o o o + @.NXmXcX3X2X=X}.Z.N.g.e.M.C.Q.J X . 6 .X8X8X8X8X0X#XQ.Y.R.R._._._.'._.U.f.7.7.t.f.(.^.].7X&X,X9X0X0X1X1X%X.X-X-XXXXXXXXX",
"+ o + @ P.VXvXcXjXlXrX*XA.m.i.5.M.A.T.Q X . 5 *XyXqXyXyXwX&X*XR.Y.Y.Y.I.R.I.G.C.t.t.7.t.f.^.^.].].&X$X$X&X,X,X1X*XXXXXXXXXXX>X>X",
"+ o   , L.mXvXxXgXsXfX8X!.l.3.h.M.B.Z.%.X X 5 %XyXuXuXuXqX,X#XQ.J.I.R.Y.I.I.x.s.t.t.t.t.s.C.U.].].].].#X$X$X%XXXW.W.-XoXXXXX;X;X",
"o o + , P.MXvXxXaXrXwX&X~.N.3.g.N.Z.n.J.u X 5 =XfXuXuXyXwX9X&X$XQ.R.Y.I.G.G.k.d.r.7.7.7.r.s.I.E.Q._._.'.#X$X#XW.-X-XW.).)..X`.;X",
"+ o o + #.MXcX3X0X<X&XOX!.l.e.h.g.l.c.%XoXL 5 W.8XuXyXyXwXwXeX9X#X_.G.G.v.x.x.j.s.s.r.r.p.d.x.I.E.Q.E._._.[.Y.G.W.oXXX>XXXXX;X;X",
"o o + + w jXjX>X#XOXE.E.Z.l.u.h.y.h.S.!.eXaX`.G.=XqXqXtXeXtXtXtX0X$X'.I.z.B.x.C.x.I.I.F.s.d.s.G.I.E.E.Y.Y.G.G.G.K.XX%X>X<X2X2X3X",
"+   + o @ j.jXXXoX_.Z.z.z.g.g.g.g.l.Z.!.&XwXnXpX%X1XtXpXtXtXtXtX0X9X$XT.A.U.E.].E.U.{.I.I.x.x.x.I.I.I.G.G.G.I.W..X.XXX>X<X<XsXiX",
"  + o o + H 3X1XOXOX!.N.z.z.N.N.z.z.Z.~.$X2XzXnXhX0XrXtXtXtXtXeX0XwX&X}.~.T.^.].^.'.^.^.E.I.I.T.I.I.U.I.G.I.E._.-X=X<X<X<X<X2X3X",
"o o   o   > %.>X2X%XQ.T.B.A.N.N.N.Z.!.}.OX9XwXhXhX0XeXhXpXdXdXtXeXwX8X7X X/.~.|./.]./.+X'.E.'.OX].E._.Q.R._._.oXXXXX:X<X<X<X<X<X",
"+ o + + + @ @ q F.2X$X'.T.T.A.B.T.~. X}.+X@X0XrXpXkXeXeXtXtXtXeXwX9X9X6X|. X/.~.T.~.T././././.OXOXQ.^.Q.E.E.'.#XXXXXoX;X;X:X3X<X",
"      + + + +   u aXsX&X X~././. X|.5X|.+X@X@X0XeXpXeXwXeXeXpXeXqXeX9X7X7X~.~.A.A.A.S.D.~.~././.^.T.T.E.Q.R.`._.`.).).`.`.;X:X:X",
"o o   +     @ + : 3XvXpX,XOX/./.+X7X|.|.+X@X@X#X0XwXtX0X$X9XeX9X9X0X9X6X7X X~.A.S.S.S.S.{.A.T.A.A.T.T.Y.R._.R.R.K.H.F.F.P.H.L.L.",
"o   o o   +     @ P.vXvXpX=X}.OX7X7X7X+X+X+X$X$X,X1XeX0X&X,X,X9X9X9X0XqX6X7XD.D.S.N.N.S.A.A.Z.A.T.!.Z.N.B.G.G.H.H.j.a.*.a.a.P.F.",
"o o o o   + +   + U mXmXjX2X#X+X@X7X+X+X+X@X@XOX,X,X0X0X,X,X,X0XqXwXqX8X8X7X7XD.S.N.m.S.S.A.}.}.~.A.Z.z.k.d.p.p.a.&.%.| #.*.*.a.",
"o . o o o +   o o 9 xXvXvXjX1X@X7X7X7X@X@X&X$X[.$X,X,X0X9X,X,X9XeXwXqX8X8X6X7X XD.S.S.S.A.A./.~.S.g.l.0.7.$.6.6.a.%.#.' ' #.=.*.",
"o o o o + + + + @ @ L.mXvXjX1X=X6X7X&X&X&X,X$X[.;X>X,X,X,X$X#XwXeX9X8X8X8X6X7X7X~.|.A.A.A.S.S.S.N.g.0.4.$.] ' ' $.' I L L L I Q "
};
